<?xml version="1.0" encoding="UTF-8" standalone="no"?>
<!-- Created with Inkscape (http://www.inkscape.org/) -->

<svg
   xmlns:dc="http://purl.org/dc/elements/1.1/"
   xmlns:cc="http://creativecommons.org/ns#"
   xmlns:rdf="http://www.w3.org/1999/02/22-rdf-syntax-ns#"
   xmlns:svg="http://www.w3.org/2000/svg"
   xmlns="http://www.w3.org/2000/svg"
   xmlns:sodipodi="http://sodipodi.sourceforge.net/DTD/sodipodi-0.dtd"
   xmlns:inkscape="http://www.inkscape.org/namespaces/inkscape"
   width="185mm"
   height="36mm"
   viewBox="0 0 185 36"
   version="1.1"
   id="svg1714"
   inkscape:version="0.92.5 (2060ec1f9f, 2020-04-08)"
   sodipodi:docname="hooloovoo.svg">
  <defs
     id="defs1708" />
  <sodipodi:namedview
     id="base"
     pagecolor="#ffffff"
     bordercolor="#666666"
     borderopacity="1.0"
     inkscape:pageopacity="0.0"
     inkscape:pageshadow="2"
     inkscape:zoom="0.98994949"
     inkscape:cx="507.12219"
     inkscape:cy="325.93475"
     inkscape:document-units="mm"
     inkscape:current-layer="layer1"
     showgrid="false"
     inkscape:window-width="2560"
     inkscape:window-height="1320"
     inkscape:window-x="0"
     inkscape:window-y="33"
     inkscape:window-maximized="1" />
  <metadata
     id="metadata1711">
    <rdf:RDF>
      <cc:Work
         rdf:about="">
        <dc:format>image/svg+xml</dc:format>
        <dc:type
           rdf:resource="http://purl.org/dc/dcmitype/StillImage" />
        <dc:title></dc:title>
      </cc:Work>
    </rdf:RDF>
  </metadata>
  <g
     inkscape:label="Layer 1"
     inkscape:groupmode="layer"
     id="layer1"
     transform="translate(0,-261)">
    <path
       inkscape:connector-curvature="0"
       id="path2286"
       d="m 33.933158,289.17937 c -2.361515,-0.35784 -4.328801,-1.34005 -5.995467,-2.99336 -3.337143,-3.3104 -3.86692,-8.72594 -1.247176,-12.749 2.154682,-3.30887 6.341714,-5.19592 10.30014,-4.64216 3.240204,0.45327 5.549161,1.79964 7.362961,4.29338 0.50534,0.69479 0.91043,1.09968 1.1002,1.09968 0.18873,0 0.56873,-0.37608 1.02238,-1.01182 2.38146,-3.33731 6.52426,-5.01274 10.63162,-4.29966 1.79366,0.3114 2.81637,0.70669 4.1885,1.61887 5.28514,3.51355 6.09753,11.13846 1.66005,15.58077 -1.83705,1.83906 -3.82796,2.80466 -6.4643,3.13523 -2.235,0.28024 -4.98708,-0.26682 -6.87526,-1.36668 -0.95013,-0.55345 -2.76196,-2.28649 -3.32625,-3.18159 -0.6028,-0.95621 -1.22261,-1.08041 -1.57226,-0.31507 -0.59303,1.29809 -2.757848,3.19697 -4.546513,3.988 -1.789668,0.79148 -4.322016,1.13382 -6.238625,0.84341 z m 3.29876,-3.46708 c 3.938355,-0.90794 6.023698,-5.34611 4.453571,-9.47836 -0.890517,-2.34365 -2.988401,-3.88352 -5.527961,-4.05759 -3.289518,-0.22547 -5.903441,1.52779 -6.831086,4.58186 -0.499794,1.64546 -0.379526,3.7691 0.294876,5.20689 0.557955,1.18953 1.684174,2.48697 2.650177,3.05309 1.29968,0.76166 3.395395,1.05492 4.960423,0.69411 z m 20.602808,-0.3023 c 1.11216,-0.42228 2.55868,-1.70894 3.15685,-2.80796 2.45786,-4.51589 -0.38798,-10.15373 -5.26794,-10.43622 -3.68536,-0.21335 -6.46075,2.06158 -6.98907,5.72881 -0.52309,3.63099 1.44064,6.82116 4.78925,7.78035 1.03049,0.29518 3.18428,0.16279 4.31091,-0.26498 z m 32.02862,3.84119 c -2.60957,-0.34121 -4.60476,-1.31537 -6.39892,-3.12432 -2.11184,-2.12921 -3.04074,-4.59165 -2.88691,-7.65296 0.37691,-7.50108 8.4761,-12.00131 15.531783,-8.63007 1.31534,0.62848 2.98547,2.0996 3.88137,3.41886 0.664141,0.97799 1.064381,1.15363 1.478261,0.64872 0.12465,-0.15208 0.5546,-0.71823 0.95544,-1.25813 1.89639,-2.55433 5.59884,-4.17009 9.00568,-3.93011 2.90228,0.20445 4.91872,1.10539 6.8881,3.07762 2.07707,2.08007 3.02544,4.31417 3.02544,7.12706 -1e-5,2.88193 -0.95387,5.21542 -2.94487,7.20426 -1.41578,1.41423 -3.06539,2.35737 -4.99369,2.85505 -1.36417,0.35208 -4.00777,0.35208 -5.37193,0 -2.44485,-0.631 -4.66812,-2.14349 -6.09964,-4.14957 -0.3971,-0.5565 -0.80883,-1.01181 -0.91494,-1.01181 -0.29197,0 -0.6142,0.31125 -1.265781,1.22262 -1.27189,1.77901 -3.60165,3.34041 -5.82321,3.90268 -0.99686,0.25231 -3.192412,0.41435 -4.066183,0.3001 z m 3.816473,-3.83354 c 3.64394,-1.38404 5.15896,-6.06934 3.18286,-9.8432 -0.68256,-1.30354 -1.63329,-2.20407 -3.02101,-2.86151 -0.97978,-0.46418 -1.17419,-0.49963 -2.714342,-0.49498 -2.09755,0.007 -3.0841,0.35986 -4.39747,1.5758 -3.95225,3.65909 -2.4532,10.39113 2.6425,11.86709 1.0419,0.30178 3.192262,0.18037 4.307462,-0.2432 z m 18.856221,0.24785 c 2.9712,-0.79174 4.82209,-3.31009 4.81706,-6.55422 -0.003,-2.0553 -0.5725,-3.57857 -1.84653,-4.94062 -3.13935,-3.35622 -8.7097,-2.48941 -10.64676,1.65674 -1.54515,3.30733 -0.35528,7.59161 2.54715,9.17131 1.56855,0.85372 3.49014,1.10353 5.12908,0.66679 z m 34.26331,3.53269 c -3.36616,-0.47025 -6.40094,-2.57741 -7.78803,-5.40753 -0.93956,-1.91699 -1.16137,-2.97584 -1.08207,-5.16557 0.078,-2.15434 0.41464,-3.29845 1.46826,-4.99016 2.44627,-3.92777 7.2231,-5.76661 11.8754,-4.57146 2.32937,0.5984 4.30617,1.93681 5.80813,3.93245 0.56712,0.75353 1.00795,1.192 1.19837,1.192 0.19059,0 0.53261,-0.34068 0.93105,-0.92742 2.16683,-3.1908 6.32956,-5.00464 10.23254,-4.45864 2.66317,0.37256 4.51026,1.27884 6.31123,3.09662 1.89427,1.91196 2.80533,4.2205 2.80533,7.10838 0,4.85718 -2.99994,8.68397 -7.81043,9.96314 -1.33495,0.35498 -3.97506,0.36375 -5.39912,0.018 -2.3233,-0.56416 -4.53463,-1.96595 -5.7614,-3.65221 -0.99852,-1.3725 -1.12444,-1.50994 -1.38339,-1.50994 -0.26339,0 -0.29365,0.0326 -1.28057,1.37708 -2.1345,2.908 -6.25893,4.53544 -10.1253,3.99531 z m 4.42303,-3.91639 c 1.41122,-0.66039 2.3603,-1.58065 3.03192,-2.93984 2.02155,-4.09109 0.0238,-8.90174 -4.15421,-10.0036 -1.30526,-0.34423 -3.22221,-0.20385 -4.36582,0.31971 -2.67125,1.22293 -4.02242,3.60599 -3.85537,6.79969 0.0645,1.23235 0.16202,1.66949 0.56456,2.5297 0.54697,1.16884 1.67768,2.46762 2.63854,3.03073 1.71253,1.0036 4.31985,1.11554 6.14038,0.26361 z m 19.42286,0.1282 c 1.24409,-0.47237 2.64734,-1.78683 3.26682,-3.06012 1.75335,-3.60381 0.32948,-8.00482 -3.11574,-9.63045 -0.97387,-0.45951 -1.20028,-0.5027 -2.64501,-0.50451 -1.90039,-0.002 -2.61085,0.19329 -3.8965,1.07311 -1.72605,1.18119 -2.65016,2.92841 -2.77903,5.25426 -0.1218,2.19868 0.44118,3.83843 1.82631,5.31925 1.38674,1.48253 2.87988,2.05691 5.08621,1.95656 0.87163,-0.0397 1.66376,-0.18288 2.25694,-0.4081 z M 6.550145,289.09675 c -0.06033,-0.0604 -0.109704,-1.87512 -0.109704,-4.03286 v -3.92317 l 0.462963,-0.19795 c 0.254629,-0.10887 1.285911,-0.96226 2.291738,-1.89643 l 1.828778,-1.69848 h 4.038564 c 2.481738,0 4.156373,-0.063 4.344173,-0.16355 0.289618,-0.155 0.305609,-0.36994 0.305609,-4.10794 v -3.9444 h 1.895975 1.895975 v 9.87488 9.87487 h -1.895975 -1.895975 v -3.9444 c 0,-3.73799 -0.01599,-3.95294 -0.305609,-4.10794 -0.359319,-0.1923 -8.043647,-0.22455 -8.342045,-0.035 -0.144334,0.0917 -0.2057,1.18542 -0.236996,4.22402 l -0.04223,4.10031 -2.062768,0.0439 c -1.134522,0.0241 -2.112134,-0.005 -2.172472,-0.0658 z m 64.885121,-0.36657 c -0.15333,-0.25956 -1.08223,-1.19028 -2.06423,-2.06826 -0.982,-0.87798 -1.822919,-1.75086 -1.868719,-1.93973 -0.0458,-0.18888 -0.0635,-3.75618 -0.0395,-7.92731 l 0.0439,-7.5839 1.85648,-0.0445 1.85647,-0.0445 v 7.88556 c 0,7.14237 0.0246,7.906 0.26128,8.10241 0.1437,0.11925 0.2859,0.19906 0.316001,0.17734 0.0301,-0.0217 2.296519,-0.0395 5.036499,-0.0395 h 4.9818 l -0.0444,1.93548 -0.0444,1.93547 -5.0062,0.0417 -5.0062,0.0417 z m 53.852254,-6.28891 c -1.41587,-3.54001 -3.17558,-7.9221 -3.91045,-9.73796 -0.73487,-1.81587 -1.33613,-3.36228 -1.33613,-3.43646 0,-0.0742 0.90836,-0.13488 2.01858,-0.13488 h 2.01858 l 2.60019,6.96535 c 1.4301,3.83094 2.66408,7.00483 2.74216,7.05309 0.23285,0.14391 0.40191,-0.25845 2.67047,-6.35553 1.19632,-3.21526 2.3579,-6.32585 2.58128,-6.91241 l 0.40617,-1.06649 h 2.27716 c 1.49542,0 2.27715,0.0574 2.27715,0.1671 0,0.0919 -1.78649,4.60669 -3.96997,10.03286 l -3.96997,9.86578 -1.91545,-10e-4 -1.91545,-10e-4 z M 6.756437,272.76107 v -3.79682 l 1.935474,0.0444 1.935475,0.0444 0.04236,3.75245 0.04236,3.75245 H 8.734272 6.756438 Z"
       style="fill:#040303;fill-opacity:1;stroke-width:0.15799791" />
  </g>
</svg>
