<?xml version="1.0" encoding="UTF-8" standalone="no"?>
<!-- Created with Inkscape (http://www.inkscape.org/) -->

<svg
   xmlns:dc="http://purl.org/dc/elements/1.1/"
   xmlns:cc="http://creativecommons.org/ns#"
   xmlns:rdf="http://www.w3.org/1999/02/22-rdf-syntax-ns#"
   xmlns:svg="http://www.w3.org/2000/svg"
   xmlns="http://www.w3.org/2000/svg"
   xmlns:sodipodi="http://sodipodi.sourceforge.net/DTD/sodipodi-0.dtd"
   xmlns:inkscape="http://www.inkscape.org/namespaces/inkscape"
   width="300mm"
   height="36mm"
   viewBox="0 0 300 36"
   version="1.1"
   id="svg1714"
   inkscape:version="0.92.5 (2060ec1f9f, 2020-04-08)"
   sodipodi:docname="hooloovoo.svg">
  <defs
     id="defs1708" />
  <sodipodi:namedview
     id="base"
     pagecolor="#ffffff"
     bordercolor="#666666"
     borderopacity="1.0"
     inkscape:pageopacity="0.0"
     inkscape:pageshadow="2"
     inkscape:zoom="0.98994949"
     inkscape:cx="507.12219"
     inkscape:cy="447.15306"
     inkscape:document-units="mm"
     inkscape:current-layer="layer1"
     showgrid="false"
     inkscape:window-width="2560"
     inkscape:window-height="1320"
     inkscape:window-x="0"
     inkscape:window-y="33"
     inkscape:window-maximized="1" />
  <metadata
     id="metadata1711">
    <rdf:RDF>
      <cc:Work
         rdf:about="">
        <dc:format>image/svg+xml</dc:format>
        <dc:type
           rdf:resource="http://purl.org/dc/dcmitype/StillImage" />
        <dc:title></dc:title>
      </cc:Work>
    </rdf:RDF>
  </metadata>
  <g
     inkscape:label="Layer 1"
     inkscape:groupmode="layer"
     id="layer1"
     transform="translate(0,-261)">
    <path
       inkscape:connector-curvature="0"
       id="path2286"
       d="m 51.923963,296.04637 c -3.954595,-0.59924 -7.249012,-2.24404 -10.040012,-5.01268 -5.588381,-5.5436 -6.475544,-14.61247 -2.08852,-21.34948 3.608229,-5.54103 10.619835,-8.70109 17.248616,-7.77377 5.426046,0.75906 9.29263,3.01369 12.330009,7.18971 0.846251,1.16349 1.524606,1.84152 1.842402,1.84152 0.31604,0 0.952395,-0.62978 1.712082,-1.69439 3.987988,-5.58866 10.925524,-8.39435 17.803701,-7.20022 3.003664,0.52147 4.716304,1.18342 7.014073,2.71097 8.850486,5.88378 10.210926,18.65246 2.779926,26.09155 -3.076326,3.07969 -6.410301,4.69668 -10.825133,5.25025 -3.742732,0.4693 -8.351366,-0.44681 -11.513298,-2.28864 -1.591093,-0.92681 -4.62519,-3.82895 -5.570146,-5.32789 -1.009455,-1.60126 -2.047383,-1.80924 -2.632903,-0.5276 -0.993088,2.17377 -4.618297,5.35363 -7.613597,6.6783 -2.996978,1.3254 -7.237648,1.8987 -10.4472,1.41237 z m 5.524103,-5.80597 c 6.595171,-1.52045 10.087292,-8.9526 7.45795,-15.87247 -1.49126,-3.92467 -5.004376,-6.50334 -9.257125,-6.79483 -5.508625,-0.37757 -9.885902,2.55843 -11.439337,7.67278 -0.836954,2.75548 -0.635555,6.31173 0.4938,8.71946 0.934352,1.99199 2.820318,4.16468 4.437986,5.1127 2.176446,1.27548 5.68593,1.76656 8.306726,1.16236 z m 34.501465,-0.50623 c 1.862423,-0.70715 4.284771,-2.86179 5.286462,-4.70222 4.115927,-7.56231 -0.649716,-17.00343 -8.821687,-17.4765 -6.171517,-0.35726 -10.819177,3.45234 -11.703899,9.59347 -0.875977,6.08046 2.412487,11.42273 8.020079,13.02899 1.72565,0.4943 5.332402,0.2726 7.219045,-0.44374 z m 53.635129,6.43245 c -4.36998,-0.57138 -7.71112,-2.20271 -10.71563,-5.23197 -3.53648,-3.5656 -5.09201,-7.68918 -4.83442,-12.81566 0.63117,-12.56131 14.19408,-20.09739 26.00952,-14.45191 2.20268,1.05245 4.99947,3.51598 6.49975,5.72522 1.11216,1.63773 1.78241,1.93186 2.47549,1.08635 0.20874,-0.25467 0.92873,-1.20276 1.59998,-2.10688 3.17569,-4.27747 9.37582,-6.98322 15.08092,-6.58135 4.86015,0.34236 8.23689,1.85109 11.53481,5.15378 3.47826,3.48329 5.0664,7.22451 5.06639,11.93497 -1e-5,4.82609 -1.59733,8.73375 -4.93147,12.06426 -2.37086,2.36828 -5.1333,3.94765 -8.36243,4.78107 -2.28443,0.58959 -6.71141,0.58959 -8.99584,0 -4.09414,-1.05667 -7.81724,-3.58949 -10.21445,-6.94887 -0.66499,-0.93191 -1.35447,-1.69438 -1.53216,-1.69438 -0.48893,0 -1.02854,0.52122 -2.11968,2.0474 -2.12991,2.97914 -6.03133,5.59385 -9.75155,6.53543 -1.66935,0.42251 -5.34601,0.69386 -6.80923,0.50254 z m 6.39107,-6.41965 c 6.10214,-2.31771 8.6392,-10.16371 5.33002,-16.48343 -1.14302,-2.1829 -2.73511,-3.69092 -5.059,-4.79188 -1.64073,-0.77731 -1.9663,-0.83668 -4.54543,-0.82889 -3.51256,0.0106 -5.16462,0.60262 -7.36399,2.63884 -6.61845,6.12752 -4.10814,17.40099 4.42512,19.87263 1.74476,0.50537 5.34576,0.30205 7.21328,-0.40727 z m 31.57663,0.41506 c 4.97558,-1.32585 8.07506,-5.54309 8.06665,-10.97571 -0.005,-3.4418 -0.95871,-5.99267 -3.0922,-8.27355 -5.25717,-5.62033 -14.58528,-4.16878 -17.82907,2.77438 -2.58752,5.53845 -0.59495,12.71291 4.26546,15.35828 2.62669,1.42962 5.84459,1.84795 8.58916,1.1166 z m 57.37734,5.91584 c -5.63697,-0.78748 -10.71901,-4.31613 -13.04184,-9.05545 -1.57338,-3.2102 -1.94482,-4.98334 -1.81204,-8.65027 0.13062,-3.60764 0.69436,-5.52358 2.45876,-8.35652 4.09653,-6.57743 12.0958,-9.65676 19.88655,-7.65536 3.90077,1.00208 7.21111,3.24338 9.72629,6.58527 0.9497,1.26186 1.68791,1.99613 2.00679,1.99613 0.31916,0 0.89191,-0.57051 1.55913,-1.55306 3.62858,-5.34332 10.5995,-8.38077 17.13542,-7.46644 4.45974,0.62389 7.55288,2.14155 10.56879,5.18561 3.17214,3.20175 4.6978,7.06764 4.6978,11.90368 0,8.13384 -5.02369,14.54219 -13.07933,16.68428 -2.23552,0.59445 -6.65665,0.60914 -9.04139,0.0301 -3.8906,-0.94475 -7.59368,-3.29219 -9.64803,-6.116 -1.67212,-2.29839 -1.88299,-2.52855 -2.31664,-2.52855 -0.44106,0 -0.49173,0.0545 -2.14442,2.30608 -3.57445,4.86972 -10.48121,7.59504 -16.95584,6.69054 z m 7.4068,-6.55839 c 2.36324,-1.10589 3.95257,-2.64695 5.07726,-4.92305 3.38529,-6.85094 0.0399,-14.90686 -6.95664,-16.75203 -2.18578,-0.57645 -5.39592,-0.34137 -7.311,0.53538 -4.47327,2.04793 -6.73595,6.0386 -6.45621,11.38676 0.10795,2.0637 0.27132,2.79573 0.94542,4.23624 0.91595,1.95735 2.80944,4.13228 4.4185,5.07526 2.86779,1.68063 7.23402,1.86808 10.28267,0.44144 z m 32.52553,0.21469 c 2.08336,-0.79104 4.43323,-2.99222 5.47061,-5.12448 2.93616,-6.03495 0.55176,-13.40488 -5.21761,-16.12715 -1.63084,-0.7695 -2.00999,-0.84182 -4.42934,-0.84485 -3.18238,-0.004 -4.37211,0.32367 -6.52508,1.79702 -2.89044,1.97802 -4.43796,4.90392 -4.65375,8.79878 -0.20397,3.68191 0.73879,6.42785 3.05834,8.90762 2.32223,2.48265 4.82264,3.44451 8.51736,3.27647 1.45963,-0.0664 2.78612,-0.30625 3.77947,-0.68341 z M 6.0683633,295.90802 c -0.101041,-0.10104 -0.183711,-3.14009 -0.183711,-6.75344 v -6.56973 l 0.775278,-0.33149 c 0.426402,-0.18232 2.153388,-1.61141 3.8377457,-3.17576 l 3.062471,-2.84427 h 6.76298 c 4.155919,0 6.960264,-0.10558 7.274753,-0.27389 0.484995,-0.25956 0.511773,-0.61951 0.511773,-6.87916 V 262.475 h 3.175 3.175 v 16.53646 16.53646 h -3.175 -3.175 v -6.60528 c 0,-6.25965 -0.02678,-6.6196 -0.511773,-6.87917 -0.601715,-0.32202 -13.469892,-0.37602 -13.969589,-0.0586 -0.241703,0.15353 -0.344467,1.9851 -0.396875,7.07355 l -0.07072,6.86638 -3.4543107,0.0735 c -1.899871,0.0404 -3.53698,-0.009 -3.638021,-0.11024 z M 114.72501,295.29416 c -0.25677,-0.43466 -1.81231,-1.99324 -3.45677,-3.46351 -1.64445,-1.47027 -3.05267,-2.93199 -3.12937,-3.24828 -0.0767,-0.31629 -0.10644,-6.29008 -0.0661,-13.27508 l 0.0734,-12.69999 3.10886,-0.0745 3.10885,-0.0745 v 13.20515 c 0,11.96062 0.0412,13.2394 0.43754,13.5683 0.24065,0.19971 0.47877,0.33336 0.52917,0.29698 0.0504,-0.0364 3.84576,-0.0661 8.43414,-0.0661 h 8.34252 l -0.0743,3.24115 -0.0743,3.24114 -8.38338,0.0698 -8.38338,0.0698 z m 90.18098,-10.53142 c -2.37103,-5.9281 -5.31783,-13.26633 -6.54844,-16.30718 -1.23062,-3.04086 -2.23748,-5.63047 -2.23748,-5.75469 0,-0.12423 1.52113,-0.22587 3.3803,-0.22587 h 3.38031 l 4.35428,11.66417 c 2.39485,6.41529 4.46127,11.73029 4.59203,11.8111 0.38993,0.24099 0.67304,-0.4328 4.47198,-10.64298 2.00335,-5.38427 3.94853,-10.59325 4.32261,-11.57551 l 0.68016,-1.78594 h 3.81333 c 2.50424,0 3.81333,0.0961 3.81333,0.27982 0,0.1539 -2.99166,7.71436 -6.64812,16.80103 l -6.64812,16.52123 -3.20761,-0.003 -3.20761,-0.003 z M 6.4138193,268.55228 v -6.35815 l 3.241146,0.0743 3.2411467,0.0743 0.07093,6.28386 0.07093,6.28385 h -3.3120817 -3.31208 z"
       style="fill:#040303;fill-opacity:1;stroke-width:0.26458332" />
  </g>
</svg>
