<?xml version="1.0" encoding="UTF-8" standalone="no"?>
<!-- Created with Inkscape (http://www.inkscape.org/) -->

<svg
   xmlns:dc="http://purl.org/dc/elements/1.1/"
   xmlns:cc="http://creativecommons.org/ns#"
   xmlns:rdf="http://www.w3.org/1999/02/22-rdf-syntax-ns#"
   xmlns:svg="http://www.w3.org/2000/svg"
   xmlns="http://www.w3.org/2000/svg"
   xmlns:sodipodi="http://sodipodi.sourceforge.net/DTD/sodipodi-0.dtd"
   xmlns:inkscape="http://www.inkscape.org/namespaces/inkscape"
   width="50mm"
   height="36mm"
   viewBox="0 0 50 36"
   version="1.1"
   id="svg8"
   inkscape:version="0.92.5 (2060ec1f9f, 2020-04-08)"
   sodipodi:docname="krang.svg">
  <defs
     id="defs2" />
  <sodipodi:namedview
     id="base"
     pagecolor="#ffffff"
     bordercolor="#666666"
     borderopacity="1.0"
     inkscape:pageopacity="0.0"
     inkscape:pageshadow="2"
     inkscape:zoom="2.8"
     inkscape:cx="71.63966"
     inkscape:cy="10.283785"
     inkscape:document-units="mm"
     inkscape:current-layer="layer1"
     showgrid="false"
     inkscape:window-width="2560"
     inkscape:window-height="1320"
     inkscape:window-x="0"
     inkscape:window-y="33"
     inkscape:window-maximized="1" />
  <metadata
     id="metadata5">
    <rdf:RDF>
      <cc:Work
         rdf:about="">
        <dc:format>image/svg+xml</dc:format>
        <dc:type
           rdf:resource="http://purl.org/dc/dcmitype/StillImage" />
        <dc:title></dc:title>
      </cc:Work>
    </rdf:RDF>
  </metadata>
  <g
     inkscape:label="Layer 1"
     inkscape:groupmode="layer"
     id="layer1"
     transform="translate(0,-261)">
    <path
       inkscape:connector-curvature="0"
       id="path838"
       d="m 41.953364,295.82955 c 0.09026,-0.0863 0.193901,-0.19777 0.230309,-0.24778 0.03641,-0.05 0.06682,0.0206 0.06758,0.15687 0.0012,0.20642 -0.03729,0.24778 -0.230309,0.24778 -0.222974,0 -0.225516,-0.006 -0.06758,-0.15687 z m -31.364832,-1.51644 c -0.07787,-0.0779 -0.141587,-0.2806 -0.141587,-0.4505 v -0.30892 H 9.866397 c -0.733953,0 -0.86107,-0.14262 -0.86107,-0.96611 v -0.56561 h -0.48912 c -0.308855,0 -0.537639,-0.0485 -0.620769,-0.13165 -0.109571,-0.10957 -0.132356,-0.59686 -0.135868,-2.90576 -0.0023,-1.52576 0.01576,-2.84366 0.04019,-2.92866 0.02585,-0.0899 0.174096,-0.17887 0.354685,-0.21275 l 0.310276,-0.0582 v -0.71078 -0.71078 H 8.197587 c -0.172323,0 -0.300392,-0.0621 -0.360842,-0.1751 -0.118004,-0.22049 -0.117058,-8.57936 0.001,-8.88989 0.06941,-0.18255 0.142992,-0.21543 0.48222,-0.21543 0.652334,0 0.684549,-0.033 0.69169,-0.70792 0.0098,-0.92795 0.02398,-0.9444 0.903387,-1.04905 l 0.75715,-0.0901 0.02664,-0.71654 c 0.01465,-0.39409 0.06883,-0.76737 0.120389,-0.82949 0.05316,-0.0641 0.353719,-0.12442 0.694165,-0.13942 l 0.60042,-0.0265 0.04505,-0.81091 c 0.02478,-0.446 0.07785,-0.8616 0.117944,-0.92354 0.04456,-0.0688 0.276689,-0.11263 0.59715,-0.11263 0.319698,0 0.562111,-0.0456 0.621271,-0.11689 0.05336,-0.0643 0.109005,-0.43934 0.123659,-0.83344 l 0.02664,-0.71654 0.720809,-0.0451 0.720808,-0.0451 0.02684,-0.67173 c 0.01477,-0.36945 0.069,-0.72252 0.120515,-0.78459 0.05468,-0.0659 0.362305,-0.12382 0.739013,-0.13918 l 0.645345,-0.0263 0.02319,-0.5406 c 0.04266,-0.9943 -0.0067,-0.94607 0.96792,-0.94607 0.969969,0 0.923238,0.0435 0.967755,-0.901 l 0.02336,-0.49556 1.61517,-0.0247 c 1.004917,-0.0154 1.660236,-0.0621 1.734446,-0.12365 0.07173,-0.0595 0.119276,-0.29087 0.119276,-0.58035 0,-0.38368 0.03536,-0.50028 0.174279,-0.57462 0.264972,-0.14181 4.255113,-0.12444 4.445301,0.0193 0.103146,0.078 0.156943,0.27891 0.174898,0.65323 l 0.02593,0.54061 1.666871,0.0451 1.66687,0.0451 0.04505,0.67576 0.04505,0.67575 0.901011,0.0451 0.90101,0.0451 0.02319,0.5406 c 0.04168,0.97152 0.02073,0.94606 0.778402,0.94606 0.432692,0 0.69664,0.0405 0.759822,0.11666 0.05325,0.0642 0.108893,0.41893 0.123659,0.78838 l 0.02685,0.67173 0.630707,0.0271 c 0.34689,0.0149 0.671254,0.0675 0.720809,0.11676 0.04956,0.0493 0.110374,0.42228 0.135152,0.82884 l 0.04505,0.73921 0.585656,0.0273 c 0.322112,0.015 0.626203,0.0675 0.675759,0.11672 0.04955,0.0492 0.110374,0.46264 0.135151,0.91878 l 0.04505,0.82934 0.626951,0.0271 c 0.344823,0.0149 0.679324,0.0705 0.743334,0.12366 0.07792,0.0647 0.116383,0.34254 0.116383,0.84083 v 0.74424 l 0.676752,0.0634 c 0.80882,0.0758 0.854966,0.13088 0.854966,1.02054 v 0.62411 l 0.551028,0.05 c 0.303065,0.0275 0.587266,0.0862 0.631558,0.13049 0.04579,0.0458 0.07045,2.02175 0.05715,4.58023 l -0.02337,4.4997 -0.315354,0.10193 -0.315353,0.10192 v 0.65211 0.65211 l 0.315353,0.10193 0.315354,0.10192 0.0239,2.92829 c 0.02726,3.33994 0.0723,3.15353 -0.761929,3.15353 h -0.478333 v 0.57568 c 0,0.79847 -0.13428,0.94398 -0.901011,0.97636 l -0.585657,0.0247 -0.02757,0.31536 c -0.03914,0.44767 -0.213577,0.5406 -1.014782,0.5406 -0.770924,0 -0.863903,-0.0553 -0.909987,-0.54096 l -0.02989,-0.315 -1.324828,-0.0451 c -0.828966,-0.0282 -1.363896,-0.0842 -1.429207,-0.14977 -0.07152,-0.0717 -0.100345,-0.558 -0.09157,-1.54452 l 0.0128,-1.4398 -0.340571,-0.0323 c -0.187314,-0.0177 -0.492617,-0.0196 -0.678451,-0.004 l -0.337879,0.0279 v 0.57491 c 0,0.36097 -0.04191,0.60202 -0.112626,0.64779 -0.06194,0.0401 -0.477536,0.0932 -0.923536,0.11794 l -0.81091,0.0451 -0.02714,0.52207 c -0.02407,0.46293 -0.0528,0.53182 -0.253644,0.60818 -0.134986,0.0513 -2.436725,0.0861 -5.696756,0.0861 -6.280997,0 -5.870753,0.0539 -5.870753,-0.77097 v -0.49045 h -0.726745 c -1.004465,0 -1.075289,-0.0502 -1.075289,-0.76255 v -0.576 l -0.484632,-0.0605 c -0.859377,-0.10738 -0.866885,-0.0937 -0.866885,1.57715 0,1.04756 -0.0303,1.45274 -0.112626,1.50602 -0.06194,0.0401 -0.700536,0.0932 -1.419092,0.11795 l -1.306466,0.0451 -0.02989,0.31499 c -0.04664,0.4916 -0.13478,0.54097 -0.965821,0.54097 -0.560221,0 -0.783991,-0.0356 -0.889979,-0.14159 z m 4.498619,-4.85902 v -0.54061 h -0.585657 -0.585658 l -0.02791,0.43906 c -0.04256,0.66949 -0.01372,0.69988 0.634931,0.66901 l 0.564298,-0.0269 z m 19.849958,0.50817 c 0.0795,-0.0504 0.108805,-0.23313 0.0901,-0.56175 l -0.02772,-0.48703 h -0.585657 -0.585657 l -0.02791,0.43906 c -0.04075,0.64092 -0.0039,0.68741 0.543168,0.68583 0.261722,-6.8e-4 0.528877,-0.035 0.593679,-0.0761 z m -11.31567,-4.73705 c 0.08231,-0.90835 0.03346,-0.97697 -0.641398,-0.9011 -0.431352,0.0485 -0.540046,0.0288 -0.748773,-0.13591 -0.2126,-0.16773 -0.340746,-0.18924 -0.991111,-0.1664 l -0.746941,0.0262 -0.02603,0.84251 c -0.01703,0.5514 0.01075,0.88682 0.08041,0.97075 0.08564,0.1032 0.389934,0.12343 1.557745,0.10356 l 1.451309,-0.0247 z m 4.736145,-0.25365 0.02557,-0.96859 h -0.727505 c -0.603518,0 -0.772241,0.0331 -0.989995,0.19407 -0.239541,0.1771 -0.339654,0.18977 -1.14514,0.14498 -0.485459,-0.027 -0.933333,-0.0299 -0.995278,-0.006 -0.152445,0.0578 -0.154811,1.39111 -0.0027,1.54318 0.08096,0.081 0.596789,0.1035 1.959699,0.0856 l 1.849811,-0.0243 z m -9.891643,-2.05731 c 0,-0.68664 -0.0275,-0.89941 -0.112626,-0.87123 -0.07513,0.0249 -0.12142,0.28736 -0.139038,0.78836 -0.0277,0.78768 0.0049,0.99139 0.158736,0.99139 0.05769,0 0.09293,-0.34448 0.09293,-0.90852 z m 11.43559,0.7821 c 0.06654,-0.0802 0.0953,-0.40152 0.07861,-0.87848 l -0.02631,-0.75207 h -0.675758 -0.675759 l -0.02625,0.80329 c -0.01902,0.58187 0.0058,0.82364 0.0901,0.8771 0.199518,0.12658 1.119767,0.0894 1.235368,-0.0498 z m -9.562591,-8.48394 c 0.08621,-0.027 0.109365,-0.25089 0.0901,-0.87126 l -0.02593,-0.83495 -0.946061,0.002 c -0.520334,0.001 -1.057562,0.0326 -1.19384,0.0693 -0.243841,0.0657 -0.247778,0.0781 -0.247778,0.78075 0,0.96601 0.07339,1.01907 1.306466,0.94446 0.495556,-0.03 0.953223,-0.0709 1.017038,-0.0908 z m 10.290648,-0.0393 c 0.147912,-0.14792 0.180202,-0.30034 0.180202,-0.85065 0,-0.37571 -0.04205,-0.69643 -0.09565,-0.72956 -0.05261,-0.0325 -0.57015,-0.081 -1.150091,-0.10769 -1.302483,-0.06 -1.294966,-0.0659 -1.258346,0.98088 l 0.02631,0.75207 0.765859,0.0508 c 0.421223,0.0279 0.897632,0.0583 1.058688,0.0676 0.189791,0.0109 0.356236,-0.0466 0.473031,-0.16341 z"
       style="fill:#a1a1a1;stroke-width:0.09010109" />
    <path
       inkscape:connector-curvature="0"
       id="path836"
       d="m 42.029866,295.78148 c 0.03063,-0.0496 0.07357,-0.0901 0.09542,-0.0901 0.02185,0 0.03973,0.0405 0.03973,0.0901 0,0.0496 -0.04294,0.0901 -0.09542,0.0901 -0.05248,0 -0.07036,-0.0405 -0.03973,-0.0901 z m -31.444634,-1.73445 c -0.02132,-0.0619 -0.05045,-0.25454 -0.06475,-0.42798 l -0.026,-0.31536 -0.6004201,-0.0265 c -0.338867,-0.0149 -0.641071,-0.0754 -0.693738,-0.1389 -0.05133,-0.0618 -0.105501,-0.39457 -0.12039,-0.7394 l -0.02707,-0.62695 -0.585657,-0.0451 -0.585657,-0.0451 v -2.82836 c 0,-3.07564 -0.04125,-2.8088 0.47303,-3.06026 0.128655,-0.0629 0.162462,-0.21998 0.183673,-0.85337 l 0.026,-0.77628 -0.251249,-0.0552 c -0.138186,-0.0303 -0.30193,-0.0708 -0.363874,-0.0899 -0.08808,-0.0271 -0.112626,-0.98718 -0.112626,-4.40426 0,-4.9731 -0.07368,-4.5561 0.804986,-4.5561 h 0.456429 v -0.68168 c 0,-0.98837 0.03668,-1.03024 0.9024641,-1.03024 0.826083,0 0.79242,0.0419 0.831592,-1.03616 l 0.02291,-0.63071 0.675759,-0.0451 0.675758,-0.0451 0.02614,-0.85109 c 0.01438,-0.46809 0.07002,-0.90396 0.123659,-0.96858 0.06115,-0.0737 0.30764,-0.11751 0.660881,-0.11751 0.558885,0 0.56381,-0.002 0.619675,-0.28156 0.03097,-0.15486 0.05631,-0.51794 0.05631,-0.80683 0,-0.52232 0.0016,-0.52554 0.292829,-0.57507 0.161055,-0.0274 0.495556,-0.0394 0.743334,-0.0266 l 0.450505,0.0232 0.04505,-0.76586 0.04505,-0.76586 0.660407,-0.0513 c 0.428449,-0.0333 0.689049,-0.0966 0.741955,-0.1802 0.04485,-0.0709 0.08217,-0.40254 0.08293,-0.73704 l 0.0014,-0.60818 h 0.75849 c 1.042136,0 1.04326,-6.9e-4 1.044911,-0.66288 7.15e-4,-0.30442 0.0353,-0.60698 0.07675,-0.67235 0.05639,-0.0889 0.490724,-0.12847 1.724905,-0.15703 0.907246,-0.021 1.661471,-0.0501 1.676056,-0.0647 0.01459,-0.0146 0.05885,-0.28857 0.09838,-0.60884 l 0.07186,-0.58232 h 2.162311 2.162313 l 0.0268,0.56225 c 0.03661,0.768 0.07826,0.78524 1.726483,0.71447 1.751664,-0.0752 1.715608,-0.0882 1.715608,0.61948 0,0.78384 0.100995,0.87122 0.982303,0.84985 0.376512,-0.009 0.729299,-0.0124 0.783972,-0.007 0.05735,0.005 0.124116,0.30164 0.157808,0.70023 0.03212,0.37999 0.08184,0.71449 0.110479,0.74333 0.02864,0.0288 0.363083,0.0727 0.743203,0.0975 l 0.691126,0.0451 0.02606,0.73654 0.02606,0.73654 0.604647,0.0573 c 0.332557,0.0315 0.665467,0.0654 0.739801,0.0754 0.106127,0.0142 0.140742,0.18722 0.161184,0.8055 0.02872,0.86852 -0.01693,0.81786 0.711209,0.78929 0.685105,-0.0269 0.749426,0.062 0.749426,1.03569 0,0.97295 -0.04809,0.92382 0.946061,0.96647 l 0.540607,0.0232 0.02591,0.83344 0.02591,0.83343 h 0.5882 c 0.895074,0 0.936757,0.0422 0.936757,0.94923 v 0.76269 l 0.518081,10e-4 c 0.284944,6.9e-4 0.569153,0.0338 0.631574,0.0734 0.08926,0.0567 0.108498,1.01361 0.0901,4.48115 l -0.02339,4.4091 -0.225253,0.0312 c -0.387466,0.0536 -0.450505,0.17445 -0.450505,0.86367 0,0.71029 0.0991,0.92331 0.450505,0.9684 l 0.225253,0.0289 v 2.88324 2.88323 l -0.585657,0.0451 -0.585657,0.0451 -0.02707,0.62695 c -0.01489,0.34483 -0.07053,0.67933 -0.123658,0.74334 -0.0601,0.0724 -0.309526,0.11638 -0.660182,0.11638 -0.632412,0 -0.736538,0.0721 -0.781023,0.54097 l -0.02989,0.31499 h -0.713237 -0.713192 l -0.09772,-0.40546 -0.09772,-0.40545 -1.300335,-0.0251 c -0.771158,-0.0149 -1.348664,-0.0652 -1.419093,-0.12366 -0.08943,-0.0742 -0.118756,-0.46298 -0.118756,-1.57419 v -1.47564 h -0.764143 c -0.864045,0 -0.832861,-0.0304 -0.879183,0.85596 l -0.02354,0.4505 -0.810231,0.0264 c -0.445627,0.0145 -0.850735,0.0669 -0.90024,0.11636 -0.04951,0.0495 -0.110629,0.32147 -0.135831,0.60436 l -0.04582,0.51434 -5.576201,0.0232 c -3.926157,0.0163 -5.611243,-0.006 -5.694621,-0.0751 -0.06514,-0.0541 -0.130476,-0.32801 -0.145217,-0.60888 l -0.0268,-0.51059 -0.85596,-0.0451 -0.85596,-0.0451 -0.02663,-0.55551 c -0.01464,-0.30553 -0.07715,-0.59744 -0.138908,-0.64869 -0.06175,-0.0512 -0.394409,-0.10536 -0.739232,-0.12025 l -0.626951,-0.0271 -0.04505,-0.67576 -0.04505,-0.67576 -0.788384,-0.026 -0.788385,-0.026 v 0.66876 c 0,0.77378 0.0034,0.77654 0.968587,0.77865 l 0.563132,0.001 v 1.42439 c 0,0.99899 -0.03364,1.46946 -0.112627,1.57527 -0.09468,0.12682 -0.320545,0.15469 -1.417671,0.17489 l -1.305045,0.024 -0.05165,0.31842 c -0.02841,0.17513 -0.08212,0.36772 -0.119365,0.42798 -0.095,0.15372 -1.490115,0.15095 -1.543104,-0.003 z m 24.485027,-4.10931 c 0.04189,-0.0419 0.06394,-0.33559 0.049,-0.65267 l -0.02717,-0.57651 H 34.32623 33.56037 l -0.02634,0.64647 c -0.02488,0.61074 -0.01492,0.64894 0.180202,0.6912 0.287032,0.0622 1.26349,-0.0159 1.356029,-0.10849 z m -11.524676,-4.00125 c 0.13252,-0.0969 0.152086,-0.24286 0.129847,-0.96859 l -0.02618,-0.8545 -0.675758,-0.0451 c -0.449129,-0.0299 -0.758462,-0.10114 -0.922363,-0.21232 -0.202246,-0.13718 -0.377158,-0.16134 -0.972393,-0.13431 -0.517413,0.0235 -0.750167,0.0715 -0.810703,0.16727 -0.0467,0.0739 -0.08554,0.52733 -0.08629,1.00769 -0.0019,1.17605 -0.03649,1.1539 1.803469,1.1539 0.990897,0 1.450285,-0.0336 1.560381,-0.11409 z m 4.819714,-0.004 c 0.05385,-0.0649 0.109497,-0.56156 0.123658,-1.10373 l 0.02575,-0.98577 0.743335,-0.0261 0.743333,-0.0262 v -0.97783 c 0,-1.12266 0.02685,-1.08798 -0.840804,-1.08582 -0.806294,0.002 -0.820871,0.0203 -0.857034,1.07643 l -0.03097,0.90441 H 27.57235 c -0.563784,0 -0.74485,0.0351 -0.929304,0.1802 -0.198847,0.15641 -0.365521,0.1802 -1.262534,0.1802 -0.802831,0 -1.058158,0.0298 -1.144195,0.13345 -0.07427,0.0895 -0.09982,0.37411 -0.07758,0.86398 0.02696,0.59357 0.06577,0.75437 0.207041,0.85767 0.243908,0.17835 3.852241,0.18661 3.999515,0.009 z m -9.826241,-3.10314 -0.02557,-0.96858 -0.244635,-0.0282 c -0.311137,-0.0359 -0.373652,0.17756 -0.326353,1.1142 0.03525,0.69807 0.116028,0.84684 0.46141,0.8498 0.145921,10e-4 0.158369,-0.0878 0.135151,-0.96721 z m 12.181745,-2.17345 c -0.0021,-1.31725 -0.162036,-1.34802 -0.195756,-0.0377 -0.02229,0.86639 -0.0048,1.07322 0.08451,0.99887 0.076,-0.0633 0.112177,-0.37584 0.111247,-0.96121 z m -9.387114,-4.64795 c 0.03098,-0.71745 0.09964,-0.83844 0.497721,-0.87703 l 0.286118,-0.0277 0.02624,-0.80269 c 0.01443,-0.44148 -0.007,-0.83596 -0.04769,-0.87662 -0.04066,-0.0407 -1.216699,-0.0809 -2.613421,-0.0895 -1.944106,-0.0119 -2.571936,0.0113 -2.677871,0.0993 -0.173474,0.14397 -0.197863,1.43887 -0.03026,1.60648 0.05947,0.0595 0.314903,0.10812 0.567637,0.10812 0.252733,0 0.50817,0.0487 0.567637,0.10812 0.06236,0.0624 0.108121,0.36107 0.108121,0.70579 0,0.32872 0.02793,0.62561 0.06208,0.65975 0.03414,0.0341 0.774098,0.051 1.644345,0.0375 l 1.582267,-0.0245 z m 9.298392,-0.0221 c 0.02478,-0.35695 0.0856,-0.68922 0.135151,-0.73838 0.04956,-0.0492 0.333375,-0.10174 0.630708,-0.11685 l 0.540607,-0.0275 0.02624,-0.80269 c 0.01495,-0.45727 -0.01289,-0.84182 -0.06469,-0.89362 -0.05767,-0.0577 -1.02315,-0.0851 -2.639173,-0.0749 -2.270912,0.0143 -2.560498,0.0325 -2.660866,0.16751 -0.0656,0.0882 -0.112627,0.42185 -0.112627,0.79899 0,0.70714 0.06208,0.81542 0.495556,0.86433 0.268951,0.0303 0.270426,0.0336 0.294838,0.66121 0.01349,0.34688 0.04299,0.68232 0.06555,0.74542 0.03158,0.0883 0.409438,0.10905 1.642336,0.0901 l 1.601322,-0.0246 z"
       style="fill:#9a9a9a;stroke-width:0.09010109" />
    <path
       inkscape:connector-curvature="0"
       id="path834"
       d="m 42.029866,295.78148 c 0.03063,-0.0496 0.07357,-0.0901 0.09542,-0.0901 0.02185,0 0.03973,0.0405 0.03973,0.0901 0,0.0496 -0.04294,0.0901 -0.09542,0.0901 -0.05248,0 -0.07036,-0.0405 -0.03973,-0.0901 z m -31.444634,-1.73445 c -0.02132,-0.0619 -0.05045,-0.25454 -0.06475,-0.42798 l -0.026,-0.31536 -0.6004201,-0.0265 c -0.338867,-0.0149 -0.641071,-0.0754 -0.693738,-0.1389 -0.05133,-0.0618 -0.105501,-0.39457 -0.12039,-0.7394 l -0.02707,-0.62695 -0.585657,-0.0451 -0.585657,-0.0451 v -2.82836 c 0,-3.07564 -0.04125,-2.8088 0.47303,-3.06026 0.128655,-0.0629 0.162462,-0.21998 0.183673,-0.85337 l 0.026,-0.77628 -0.251249,-0.0552 c -0.138186,-0.0303 -0.30193,-0.0708 -0.363874,-0.0899 -0.08808,-0.0271 -0.112626,-0.98718 -0.112626,-4.40426 0,-4.9731 -0.07368,-4.5561 0.804986,-4.5561 h 0.456429 v -0.68168 c 0,-0.98837 0.03668,-1.03024 0.9024641,-1.03024 0.826083,0 0.79242,0.0419 0.831592,-1.03616 l 0.02291,-0.63071 0.675759,-0.0451 0.675758,-0.0451 0.02614,-0.85109 c 0.01438,-0.46809 0.07002,-0.90396 0.123659,-0.96858 0.06115,-0.0737 0.30764,-0.11751 0.660881,-0.11751 0.558885,0 0.56381,-0.002 0.619675,-0.28156 0.03097,-0.15486 0.05631,-0.51794 0.05631,-0.80683 0,-0.52232 0.0016,-0.52554 0.292829,-0.57507 0.161055,-0.0274 0.495556,-0.0394 0.743334,-0.0266 l 0.450505,0.0232 0.04505,-0.76586 0.04505,-0.76586 0.660407,-0.0513 c 0.428449,-0.0333 0.689049,-0.0966 0.741955,-0.1802 0.04485,-0.0709 0.08217,-0.40254 0.08293,-0.73704 l 0.0014,-0.60818 h 0.75849 c 1.042136,0 1.04326,-6.9e-4 1.044911,-0.66288 7.15e-4,-0.30442 0.0353,-0.60698 0.07675,-0.67235 0.05639,-0.0889 0.490724,-0.12847 1.724905,-0.15703 0.907246,-0.021 1.661471,-0.0501 1.676056,-0.0647 0.01459,-0.0146 0.05885,-0.28857 0.09838,-0.60884 l 0.07186,-0.58232 h 2.162311 2.162313 l 0.0268,0.56225 c 0.03661,0.768 0.07826,0.78524 1.726483,0.71447 1.751664,-0.0752 1.715608,-0.0882 1.715608,0.61948 0,0.78384 0.100995,0.87122 0.982303,0.84985 0.376512,-0.009 0.729299,-0.0124 0.783972,-0.007 0.05735,0.005 0.124116,0.30164 0.157808,0.70023 0.03212,0.37999 0.08184,0.71449 0.110479,0.74333 0.02864,0.0288 0.363083,0.0727 0.743203,0.0975 l 0.691126,0.0451 0.02606,0.73654 0.02606,0.73654 0.604647,0.0573 c 0.332557,0.0315 0.665467,0.0654 0.739801,0.0754 0.106127,0.0142 0.140742,0.18722 0.161184,0.8055 0.02872,0.86852 -0.01693,0.81786 0.711209,0.78929 0.685105,-0.0269 0.749426,0.062 0.749426,1.03569 0,0.97295 -0.04809,0.92382 0.946061,0.96647 l 0.540607,0.0232 0.02591,0.83344 0.02591,0.83343 h 0.5882 c 0.895074,0 0.936757,0.0422 0.936757,0.94923 v 0.76269 l 0.518081,10e-4 c 0.284944,6.9e-4 0.569153,0.0338 0.631574,0.0734 0.08926,0.0567 0.108498,1.01361 0.0901,4.48115 l -0.02339,4.4091 -0.225253,0.0312 c -0.387466,0.0536 -0.450505,0.17445 -0.450505,0.86367 0,0.71029 0.0991,0.92331 0.450505,0.9684 l 0.225253,0.0289 v 2.88324 2.88323 l -0.585657,0.0451 -0.585657,0.0451 -0.02707,0.62695 c -0.01489,0.34483 -0.07053,0.67933 -0.123658,0.74334 -0.0601,0.0724 -0.309526,0.11638 -0.660182,0.11638 -0.632412,0 -0.736538,0.0721 -0.781023,0.54097 l -0.02989,0.31499 h -0.713237 -0.713192 l -0.09772,-0.40546 -0.09772,-0.40545 -1.300335,-0.0251 c -0.771158,-0.0149 -1.348664,-0.0652 -1.419093,-0.12366 -0.08943,-0.0742 -0.118756,-0.46298 -0.118756,-1.57419 v -1.47564 h -0.764143 c -0.864045,0 -0.832861,-0.0304 -0.879183,0.85596 l -0.02354,0.4505 -0.810231,0.0264 c -0.445627,0.0145 -0.850735,0.0669 -0.90024,0.11636 -0.04951,0.0495 -0.110629,0.32147 -0.135831,0.60436 l -0.04582,0.51434 -5.576201,0.0232 c -3.926157,0.0163 -5.611243,-0.006 -5.694621,-0.0751 -0.06514,-0.0541 -0.130476,-0.32801 -0.145217,-0.60888 l -0.0268,-0.51059 -0.85596,-0.0451 -0.85596,-0.0451 -0.02663,-0.55551 c -0.01464,-0.30553 -0.07715,-0.59744 -0.138908,-0.64869 -0.06175,-0.0512 -0.394409,-0.10536 -0.739232,-0.12025 l -0.626951,-0.0271 -0.04505,-0.67576 -0.04505,-0.67576 -0.788384,-0.026 -0.788385,-0.026 v 0.66876 c 0,0.77378 0.0034,0.77654 0.968587,0.77865 l 0.563132,0.001 v 1.42439 c 0,0.99899 -0.03364,1.46946 -0.112627,1.57527 -0.09468,0.12682 -0.320545,0.15469 -1.417671,0.17489 l -1.305045,0.024 -0.05165,0.31842 c -0.02841,0.17513 -0.08212,0.36772 -0.119365,0.42798 -0.095,0.15372 -1.490115,0.15095 -1.543104,-0.003 z m 24.485027,-4.10931 c 0.04189,-0.0419 0.06394,-0.33559 0.049,-0.65267 l -0.02717,-0.57651 H 34.32623 33.56037 l -0.02634,0.64647 c -0.02488,0.61074 -0.01492,0.64894 0.180202,0.6912 0.287032,0.0622 1.26349,-0.0159 1.356029,-0.10849 z m -11.524676,-4.00125 c 0.13252,-0.0969 0.152086,-0.24286 0.129847,-0.96859 l -0.02618,-0.8545 -0.675758,-0.0451 c -0.449129,-0.0299 -0.758462,-0.10114 -0.922363,-0.21232 -0.202246,-0.13718 -0.377158,-0.16134 -0.972393,-0.13431 -0.517413,0.0235 -0.750167,0.0715 -0.810703,0.16727 -0.0467,0.0739 -0.08554,0.52733 -0.08629,1.00769 -0.0019,1.17605 -0.03649,1.1539 1.803469,1.1539 0.990897,0 1.450285,-0.0336 1.560381,-0.11409 z m 4.819714,-0.004 c 0.05385,-0.0649 0.109497,-0.56156 0.123658,-1.10373 l 0.02575,-0.98577 0.743335,-0.0261 0.743333,-0.0262 v -0.97783 c 0,-1.12266 0.02685,-1.08798 -0.840804,-1.08582 -0.806294,0.002 -0.820871,0.0203 -0.857034,1.07643 l -0.03097,0.90441 H 27.57235 c -0.563784,0 -0.74485,0.0351 -0.929304,0.1802 -0.198847,0.15641 -0.365521,0.1802 -1.262534,0.1802 -0.802831,0 -1.058158,0.0298 -1.144195,0.13345 -0.07427,0.0895 -0.09982,0.37411 -0.07758,0.86398 0.02696,0.59357 0.06577,0.75437 0.207041,0.85767 0.243908,0.17835 3.852241,0.18661 3.999515,0.009 z m -9.826241,-3.10314 -0.02557,-0.96858 -0.244635,-0.0282 c -0.311137,-0.0359 -0.373652,0.17756 -0.326353,1.1142 0.03525,0.69807 0.116028,0.84684 0.46141,0.8498 0.145921,10e-4 0.158369,-0.0878 0.135151,-0.96721 z m 1.63341,-1.22938 c 0.06865,-0.0827 0.09551,-0.45981 0.07861,-1.10374 l -0.02567,-0.97809 -0.744173,-0.0262 c -0.729148,-0.0256 -0.745976,-0.0214 -0.833435,0.20859 -0.128316,0.3375 -0.114084,1.784 0.01886,1.91695 0.15734,0.15734 1.372421,0.1432 1.50581,-0.0175 z m 6.296943,0.0175 c 0.160703,-0.16071 0.147215,-1.9097 -0.01577,-2.04496 -0.08694,-0.0722 -0.752094,-0.0956 -2.230001,-0.0786 l -2.10611,0.0242 -0.02562,1.02893 c -0.01899,0.76257 0.0043,1.04794 0.0901,1.10236 0.194308,0.12329 4.161727,0.0937 4.287401,-0.0319 z m 4.14465,0 c 0.06909,-0.0691 0.108121,-0.42066 0.108121,-0.9739 0,-0.92819 -0.102344,-1.21594 -0.41141,-1.15672 -0.157645,0.0302 -0.1767,0.12717 -0.199991,1.01765 -0.01416,0.54134 -0.0053,1.03754 0.0197,1.10267 0.05681,0.14805 0.339798,0.15408 0.483582,0.0103 z m -9.280372,-5.60956 c 0.03098,-0.71745 0.09964,-0.83844 0.497721,-0.87703 l 0.286118,-0.0277 0.02624,-0.80269 c 0.01443,-0.44148 -0.007,-0.83596 -0.04769,-0.87662 -0.04066,-0.0407 -1.216699,-0.0809 -2.613421,-0.0895 -1.944106,-0.0119 -2.571936,0.0113 -2.677871,0.0993 -0.173474,0.14397 -0.197863,1.43887 -0.03026,1.60648 0.05947,0.0595 0.314903,0.10812 0.567637,0.10812 0.252733,0 0.50817,0.0487 0.567637,0.10812 0.06236,0.0624 0.108121,0.36107 0.108121,0.70579 0,0.32872 0.02793,0.62561 0.06208,0.65975 0.03414,0.0341 0.774098,0.051 1.644345,0.0375 l 1.582267,-0.0245 z m 9.298392,-0.0221 c 0.02478,-0.35695 0.0856,-0.68922 0.135151,-0.73838 0.04956,-0.0492 0.333375,-0.10174 0.630708,-0.11685 l 0.540607,-0.0275 0.02624,-0.80269 c 0.01495,-0.45727 -0.01289,-0.84182 -0.06469,-0.89362 -0.05767,-0.0577 -1.02315,-0.0851 -2.639173,-0.0749 -2.270912,0.0143 -2.560498,0.0325 -2.660866,0.16751 -0.0656,0.0882 -0.112627,0.42185 -0.112627,0.79899 0,0.70714 0.06208,0.81542 0.495556,0.86433 0.268951,0.0303 0.270426,0.0336 0.294838,0.66121 0.01349,0.34688 0.04299,0.68232 0.06555,0.74542 0.03158,0.0883 0.409438,0.10905 1.642336,0.0901 l 1.601322,-0.0246 z"
       style="fill:#999999;stroke-width:0.09010109" />
    <path
       inkscape:connector-curvature="0"
       id="path832"
       d="m 42.029866,295.78148 c 0.03063,-0.0496 0.07357,-0.0901 0.09542,-0.0901 0.02185,0 0.03973,0.0405 0.03973,0.0901 0,0.0496 -0.04294,0.0901 -0.09542,0.0901 -0.05248,0 -0.07036,-0.0405 -0.03973,-0.0901 z m -31.444634,-1.73445 c -0.02132,-0.0619 -0.05045,-0.25454 -0.06475,-0.42798 l -0.026,-0.31536 -0.6004201,-0.0265 c -0.338867,-0.0149 -0.641071,-0.0754 -0.693738,-0.1389 -0.05133,-0.0618 -0.105501,-0.39457 -0.12039,-0.7394 l -0.02707,-0.62695 -0.585657,-0.0451 -0.585657,-0.0451 v -2.82836 c 0,-3.07564 -0.04125,-2.8088 0.47303,-3.06026 0.128655,-0.0629 0.162462,-0.21998 0.183673,-0.85337 l 0.026,-0.77628 -0.251249,-0.0552 c -0.138186,-0.0303 -0.30193,-0.0708 -0.363874,-0.0899 -0.08808,-0.0271 -0.112626,-0.98718 -0.112626,-4.40426 0,-4.9731 -0.07368,-4.5561 0.804986,-4.5561 h 0.456429 v -0.68168 c 0,-0.98837 0.03668,-1.03024 0.9024641,-1.03024 0.826083,0 0.79242,0.0419 0.831592,-1.03616 l 0.02291,-0.63071 0.675759,-0.0451 0.675758,-0.0451 0.02614,-0.85109 c 0.01438,-0.46809 0.07002,-0.90396 0.123659,-0.96858 0.06115,-0.0737 0.30764,-0.11751 0.660881,-0.11751 0.558885,0 0.56381,-0.002 0.619675,-0.28156 0.03097,-0.15486 0.05631,-0.51794 0.05631,-0.80683 0,-0.52232 0.0016,-0.52554 0.292829,-0.57507 0.161055,-0.0274 0.495556,-0.0394 0.743334,-0.0266 l 0.450505,0.0232 0.04505,-0.76586 0.04505,-0.76586 0.660407,-0.0513 c 0.428449,-0.0333 0.689049,-0.0966 0.741955,-0.1802 0.04485,-0.0709 0.08217,-0.40254 0.08293,-0.73704 l 0.0014,-0.60818 h 0.75849 c 1.042136,0 1.04326,-6.9e-4 1.044911,-0.66288 7.15e-4,-0.30442 0.0353,-0.60698 0.07675,-0.67235 0.05639,-0.0889 0.490724,-0.12847 1.724905,-0.15703 0.907246,-0.021 1.661471,-0.0501 1.676056,-0.0647 0.01459,-0.0146 0.05885,-0.28857 0.09838,-0.60884 l 0.07186,-0.58232 h 2.162311 2.162313 l 0.0268,0.56225 c 0.03661,0.768 0.07826,0.78524 1.726483,0.71447 1.751664,-0.0752 1.715608,-0.0882 1.715608,0.61948 0,0.78384 0.100995,0.87122 0.982303,0.84985 0.376512,-0.009 0.729299,-0.0124 0.783972,-0.007 0.05735,0.005 0.124116,0.30164 0.157808,0.70023 0.03212,0.37999 0.08184,0.71449 0.110479,0.74333 0.02864,0.0288 0.363083,0.0727 0.743203,0.0975 l 0.691126,0.0451 0.02606,0.73654 0.02606,0.73654 0.604647,0.0573 c 0.332557,0.0315 0.665467,0.0654 0.739801,0.0754 0.106127,0.0142 0.140742,0.18722 0.161184,0.8055 0.02872,0.86852 -0.01693,0.81786 0.711209,0.78929 0.685105,-0.0269 0.749426,0.062 0.749426,1.03569 0,0.97295 -0.04809,0.92382 0.946061,0.96647 l 0.540607,0.0232 0.02591,0.83344 0.02591,0.83343 h 0.5882 c 0.895074,0 0.936757,0.0422 0.936757,0.94923 v 0.76269 l 0.518081,10e-4 c 0.284944,6.9e-4 0.569153,0.0338 0.631574,0.0734 0.08926,0.0567 0.108498,1.01361 0.0901,4.48115 l -0.02339,4.4091 -0.225253,0.0312 c -0.387466,0.0536 -0.450505,0.17445 -0.450505,0.86367 0,0.71029 0.0991,0.92331 0.450505,0.9684 l 0.225253,0.0289 v 2.88324 2.88323 l -0.585657,0.0451 -0.585657,0.0451 -0.02707,0.62695 c -0.01489,0.34483 -0.07053,0.67933 -0.123658,0.74334 -0.0601,0.0724 -0.309526,0.11638 -0.660182,0.11638 -0.632412,0 -0.736538,0.0721 -0.781023,0.54097 l -0.02989,0.31499 h -0.713237 -0.713192 l -0.09772,-0.40546 -0.09772,-0.40545 -1.300335,-0.0251 c -0.771158,-0.0149 -1.348664,-0.0652 -1.419093,-0.12366 -0.08943,-0.0742 -0.118756,-0.46298 -0.118756,-1.57419 v -1.47564 h -0.764143 c -0.864045,0 -0.832861,-0.0304 -0.879183,0.85596 l -0.02354,0.4505 -0.810231,0.0264 c -0.445627,0.0145 -0.850735,0.0669 -0.90024,0.11636 -0.04951,0.0495 -0.110629,0.32147 -0.135831,0.60436 l -0.04582,0.51434 -5.576201,0.0232 c -3.926157,0.0163 -5.611243,-0.006 -5.694621,-0.0751 -0.06514,-0.0541 -0.130476,-0.32801 -0.145217,-0.60888 l -0.0268,-0.51059 -0.85596,-0.0451 -0.85596,-0.0451 -0.02663,-0.55551 c -0.01464,-0.30553 -0.07715,-0.59744 -0.138908,-0.64869 -0.06175,-0.0512 -0.394409,-0.10536 -0.739232,-0.12025 l -0.626951,-0.0271 -0.04505,-0.67576 -0.04505,-0.67576 -0.78495,-0.026 -0.784951,-0.026 -0.04836,-0.28937 c -0.0266,-0.15916 -0.05855,-0.4921 -0.07101,-0.73988 l -0.02265,-0.4505 -0.495556,-0.0451 -0.495556,-0.0451 v -4.14465 -4.14465 l 0.56249,-0.0268 c 0.648319,-0.0309 0.684387,-0.0833 0.636672,-0.92407 l -0.02785,-0.49074 -0.585657,-0.0451 -0.585657,-0.0451 -0.02432,-1.91465 -0.02432,-1.91465 H 11.625434 10.8228 l -0.05188,0.47303 c -0.02854,0.26017 -0.06186,0.63521 -0.07406,0.83344 l -0.02218,0.3604 -0.6989911,0.0263 -0.698991,0.0263 0.02323,5.37974 0.02323,5.37974 0.286119,0.0277 c 0.376266,0.0365 0.4625261,0.15715 0.4965031,0.69465 0.02449,0.38737 0.0619,0.46355 0.27844,0.5669 l 0.250152,0.11939 -0.0249,1.32293 -0.0249,1.32294 -0.6307081,0.0451 -0.630708,0.0451 v 0.72081 0.72081 h 0.7208091 0.720809 l 0.02553,-0.63071 c 0.02974,-0.73458 0.129724,-0.85596 0.705129,-0.85596 0.634323,0 0.665907,0.0341 0.665907,0.71942 0,0.75237 0.07724,0.83097 0.780782,0.7945 l 0.525683,-0.0272 0.0261,-0.73873 0.02609,-0.73873 -0.52165,-0.0271 -0.521651,-0.0271 -0.02725,-0.52568 c -0.03425,-0.66073 0.06007,-0.78078 0.613429,-0.78078 0.49174,0 0.536737,0.0725 0.538853,0.86797 0.0014,0.53915 0.0544,0.57041 0.969817,0.57241 l 0.563132,0.001 v 1.4244 c 0,0.99899 -0.03364,1.46945 -0.112627,1.57526 -0.09468,0.12683 -0.320545,0.15469 -1.417671,0.1749 l -1.305045,0.024 -0.05165,0.31841 c -0.02841,0.17513 -0.08212,0.36773 -0.119365,0.42799 -0.095,0.15371 -1.490115,0.15095 -1.543104,-0.003 z m 26.0656,-2.60843 c 0.06256,-0.0625 0.108121,-0.36226 0.108121,-0.71117 0,-0.66265 0.04091,-0.71242 0.585657,-0.71242 0.545693,0 0.585657,0.0491 0.585657,0.71941 0,0.76772 0.06722,0.82904 0.870376,0.79408 l 0.616292,-0.0268 0.02683,-0.61629 c 0.01594,-0.36614 -0.01459,-0.66619 -0.0752,-0.73923 -0.06061,-0.073 -0.327543,-0.13375 -0.657535,-0.14957 l -0.555503,-0.0266 -0.02599,-1.17131 c -0.03023,-1.3624 -0.0072,-1.50087 0.270012,-1.62182 0.173589,-0.0757 0.213664,-0.17623 0.251538,-0.63071 l 0.04505,-0.54061 0.360404,-0.0451 0.360405,-0.0451 0.02323,-5.38354 0.02323,-5.38354 h -0.613399 c -0.356952,0 -0.658599,-0.0452 -0.721518,-0.10812 -0.06672,-0.0667 -0.108121,-0.39444 -0.108121,-0.85596 v -0.74784 h -0.85596 -0.855961 l -0.0014,1.82455 c -7.15e-4,1.0035 -0.03214,1.87293 -0.06974,1.93207 -0.0376,0.0591 -0.310659,0.11996 -0.606803,0.13515 l -0.538444,0.0276 v 0.67576 0.67575 l 0.538443,0.0276 c 0.296145,0.0152 0.569206,0.076 0.606803,0.13515 0.08068,0.1269 0.09643,7.91068 0.01643,8.11915 -0.0393,0.1024 -0.175689,0.14253 -0.484523,0.14253 -0.241347,0 -0.472189,0.051 -0.526423,0.11638 -0.05312,0.064 -0.10877,0.39851 -0.123658,0.74333 l -0.02707,0.62695 -0.765859,0.0451 -0.76586,0.0451 -0.02625,0.64251 -0.02626,0.6425 0.326765,0.0613 c 0.179721,0.0337 0.546309,0.0339 0.814641,3.5e-4 l 0.487875,-0.061 v 0.71618 c 0,0.3939 0.02703,0.7432 0.06007,0.77624 0.106748,0.10675 1.339583,0.066 1.45363,-0.048 z m -1.513699,-2.04466 c 0,-0.68243 0.0385,-0.73045 0.585657,-0.73045 0.547156,0 0.585657,0.048 0.585657,0.73045 v 0.62107 H 35.72279 35.137133 Z m 1.663891,-3.63401 c -0.02522,-0.0657 -0.03486,-0.96989 -0.02143,-2.00928 l 0.02441,-1.88979 h 0.540607 0.540606 v 1.98222 1.98223 l -0.519171,0.027 c -0.36819,0.0192 -0.532505,-0.008 -0.565021,-0.0924 z m -8.237174,3.78245 c 0.02703,-0.23516 0.08823,-0.46665 0.135989,-0.51441 0.04776,-0.0478 0.471647,-0.0986 0.941965,-0.11303 l 0.855123,-0.0262 0.02292,-0.63071 c 0.03789,-1.04273 0.03385,-1.03616 0.637338,-1.03616 0.688909,0 0.812814,-0.10566 0.845297,-0.72081 l 0.02617,-0.49556 0.765859,-0.0451 0.765859,-0.0451 0.04505,-1.03616 0.04505,-1.03616 0.495556,-0.0234 c 0.960476,-0.0453 0.910878,0.0131 0.88161,-1.03784 l -0.02565,-0.92103 -0.675758,-0.0451 c -0.600674,-0.0401 -0.675758,-0.0651 -0.675758,-0.22526 0,-0.15552 0.06785,-0.1834 0.495556,-0.20355 0.978301,-0.0461 0.909628,0.0593 0.881013,-1.35304 l -0.02505,-1.23654 -0.694741,-0.0263 -0.694742,-0.0263 -0.07659,0.29656 -0.07659,0.29655 -1.030689,0.0451 -1.030688,0.0451 -0.04591,0.51544 c -0.02525,0.28349 -0.03151,0.69647 -0.01391,0.91773 0.02788,0.35053 0.06566,0.41401 0.293688,0.49351 l 0.261693,0.0912 v 1.12131 c 0,1.24141 0.0057,1.23001 -0.615552,1.23148 -0.18178,3.4e-4 -0.542057,0.0262 -0.800616,0.0573 l -0.470106,0.0565 -0.02545,0.95083 -0.02545,0.95082 -0.292828,0.0757 c -0.246695,0.0638 -0.292829,0.11739 -0.292829,0.34027 0,0.16934 -0.06272,0.29813 -0.174279,0.35783 -0.187868,0.10054 -9.166861,0.1349 -9.534113,0.0365 -0.146372,-0.0392 -0.202727,-0.12154 -0.202727,-0.2961 0,-0.32148 -0.153105,-0.45802 -0.513577,-0.45802 -0.163533,0 -0.305471,-0.0101 -0.315417,-0.0225 -0.0099,-0.0124 -0.04036,-0.91453 -0.06758,-2.00475 l -0.04949,-1.98222 -0.244635,-0.0282 c -0.29785,-0.0343 -0.331562,0.0727 -0.363477,1.15447 l -0.0226,0.76586 -0.417053,0.027 c -0.643012,0.0417 -0.709485,-0.0736 -0.707831,-1.2273 7.15e-4,-0.52918 0.03117,-1.00773 0.06758,-1.06345 0.03641,-0.0557 0.199349,-0.1302 0.36209,-0.16551 l 0.295895,-0.0642 -0.02559,-0.91571 -0.02559,-0.9157 -1.026677,-0.0451 c -1.059452,-0.0465 -1.088167,-0.0577 -1.216522,-0.47303 -0.0406,-0.1314 -0.158808,-0.15768 -0.709289,-0.15768 -0.393639,0 -0.704256,0.0437 -0.768687,0.10812 -0.152819,0.15282 -0.150214,2.28796 0.0029,2.38259 0.06106,0.0377 0.395565,0.0908 0.743333,0.11795 0.555797,0.0433 0.632306,0.0711 0.632306,0.22952 0,0.16035 -0.06909,0.18319 -0.626951,0.20728 -0.344823,0.0149 -0.679324,0.0705 -0.743334,0.12365 -0.07889,0.0655 -0.116383,0.35071 -0.116383,0.88544 0,0.53474 0.03749,0.81996 0.116383,0.88543 0.06401,0.0531 0.398511,0.10877 0.743334,0.12366 l 0.626951,0.0271 0.04505,1.03617 0.04505,1.03616 0.671733,0.0268 c 0.369452,0.0148 0.724225,0.0704 0.788384,0.12366 0.06891,0.0572 0.116653,0.29441 0.116653,0.57962 0,0.53891 0.01651,0.55108 0.810909,0.59763 l 0.405455,0.0238 0.02664,0.71654 c 0.01465,0.3941 0.0703,0.76915 0.123659,0.83344 0.06586,0.0794 0.348075,0.11689 0.878871,0.11689 0.487977,0 0.822498,0.0406 0.889979,0.10812 0.05947,0.0595 0.108121,0.27571 0.108121,0.48054 0,0.20483 0.02743,0.39985 0.06095,0.43337 0.03352,0.0335 1.949295,0.0504 4.257276,0.0375 l 4.196328,-0.0234 z m -5.018267,-3.60591 c 0.13252,-0.0969 0.152086,-0.24286 0.129847,-0.96859 l -0.02618,-0.8545 -0.675758,-0.0451 c -0.449129,-0.0299 -0.758462,-0.10114 -0.922363,-0.21232 -0.202246,-0.13718 -0.377158,-0.16134 -0.972393,-0.13431 -0.517413,0.0235 -0.750167,0.0715 -0.810703,0.16727 -0.0997,0.1577 -0.115506,1.80043 -0.01872,1.94535 0.118848,0.17795 0.318064,0.20192 1.738371,0.20913 0.998683,0.005 1.446747,-0.0257 1.557904,-0.10698 z m 4.815949,0.006 c 0.07061,-0.0706 0.108121,-0.44235 0.108121,-1.07157 0,-1.11444 -0.03523,-1.07283 0.90838,-1.07283 h 0.623338 v -0.98148 c 0,-1.12677 0.02712,-1.09162 -0.840804,-1.08947 -0.806294,0.002 -0.820871,0.0203 -0.857034,1.07643 l -0.03097,0.90442 h -0.700215 c -0.563784,0 -0.74485,0.0351 -0.929304,0.1802 -0.198641,0.15625 -0.365521,0.1802 -1.255546,0.1802 -0.67822,0 -1.063137,0.0367 -1.134578,0.10812 -0.06777,0.0678 -0.108121,0.4051 -0.108121,0.90392 0,0.74105 0.01394,0.80139 0.202728,0.87728 0.320198,0.1287 3.883591,0.11519 4.014003,-0.0152 z m -8.189066,-4.34236 c 0.06865,-0.0827 0.09551,-0.45981 0.07861,-1.10374 l -0.02567,-0.97809 -0.744173,-0.0262 c -0.729148,-0.0256 -0.745976,-0.0214 -0.833435,0.20859 -0.128316,0.3375 -0.114084,1.784 0.01886,1.91695 0.15734,0.15734 1.372421,0.1432 1.50581,-0.0175 z m 6.296943,0.0175 c 0.160703,-0.16071 0.147215,-1.9097 -0.01577,-2.04496 -0.08694,-0.0722 -0.752094,-0.0956 -2.230001,-0.0786 l -2.10611,0.0242 -0.02562,1.02893 c -0.01899,0.76257 0.0043,1.04794 0.0901,1.10236 0.194308,0.12329 4.161727,0.0937 4.287401,-0.0319 z m 4.14465,0 c 0.06909,-0.0691 0.108121,-0.42066 0.108121,-0.9739 0,-0.92819 -0.102344,-1.21594 -0.41141,-1.15672 -0.157645,0.0302 -0.1767,0.12717 -0.199991,1.01765 -0.01416,0.54134 -0.0053,1.03754 0.0197,1.10267 0.05681,0.14805 0.339798,0.15408 0.483582,0.0103 z m -14.195426,-2.95455 c 0.265008,-6.8e-4 0.337879,-0.0358 0.337879,-0.16296 0,-0.38414 -0.115347,-0.37843 7.636249,-0.37843 h 7.420006 l 0.09423,0.2703 c 0.09054,0.25973 0.116806,0.27094 0.671072,0.2864 0.317263,0.009 0.66807,0.019 0.77957,0.0225 0.188955,0.006 0.205788,-0.0395 0.247778,-0.66932 l 0.04505,-0.67576 0.70003,-0.0264 0.70003,-0.0264 -0.02427,-1.95588 -0.02427,-1.95587 -0.695066,-0.0263 -0.695065,-0.0262 -0.02574,-0.87476 -0.02574,-0.87475 -0.765859,-0.0451 -0.765859,-0.0451 -0.0228,-0.67576 c -0.03859,-1.14379 0.01692,-1.08121 -0.958997,-1.08121 -0.581075,0 -0.873371,-0.0363 -0.940226,-0.1169 -0.05336,-0.0643 -0.109005,-0.43934 -0.123659,-0.83343 l -0.02664,-0.71654 -1.689396,-0.0245 -1.689395,-0.0245 v 0.76785 0.76784 h 0.804474 c 1.040782,0 1.087649,0.0432 1.087649,1.00347 0,1.05449 -0.01398,1.06886 -1.039332,1.06886 h -0.852791 v 0.61656 c 0,0.33911 -0.02659,1.11101 -0.05908,1.71534 l -0.05908,1.09878 -0.729304,-0.026 -0.729304,-0.0259 -0.0247,-1.56492 c -0.01701,-1.07775 0.0075,-1.60367 0.07861,-1.6894 0.07089,-0.0854 0.312889,-0.12447 0.771185,-0.12447 h 0.667878 l -0.02568,-0.92354 -0.02568,-0.92354 -0.540606,-0.0232 c -0.998388,-0.0428 -0.9568,-0.002 -0.927006,-0.90293 l 0.026,-0.7858 0.765859,-0.0451 0.765859,-0.0451 0.04505,-0.76586 0.04505,-0.76586 1.62182,-0.0451 1.621819,-0.0451 v -0.63071 -0.6307 l -1.640182,-0.0246 -1.640182,-0.0246 -0.02669,0.6102 -0.02669,0.6102 h -0.76586 -0.765859 l -0.02725,-0.52568 c -0.037,-0.71392 0.03605,-0.78079 0.852981,-0.78079 h 0.668516 l -0.02632,-0.69828 -0.02631,-0.69828 -2.094851,-0.0242 -2.09485,-0.0242 v 0.4409 c 0,0.2425 -0.02501,0.56596 -0.05558,0.71881 l -0.05558,0.27791 0.798915,0.0262 0.798915,0.0262 v 0.63071 0.6307 l -0.788385,0.026 -0.788384,0.026 v -0.6362 -0.63621 l -1.689395,0.0245 -1.689396,0.0245 v 0.63071 0.63071 l 1.62182,0.0451 1.621819,0.0451 0.02604,0.78838 0.02603,0.78839 h -1.673206 c -1.259173,0 -1.682172,0.0279 -1.709441,0.11262 -0.01993,0.062 -0.05909,0.41322 -0.08702,0.78062 -0.02793,0.36739 -0.07436,0.69176 -0.103177,0.72081 -0.02882,0.029 -0.424254,0.0731 -0.878745,0.0979 l -0.826346,0.0451 -0.02646,0.76136 c -0.01456,0.41876 -0.06884,0.81244 -0.120633,0.87485 -0.05666,0.0683 -0.369153,0.12389 -0.784449,0.13964 l -0.690277,0.0262 -0.04505,0.85596 -0.04505,0.85596 -0.645344,0.0263 c -0.399751,0.0163 -0.683359,0.0721 -0.745234,0.14667 -0.06776,0.0817 -0.09203,0.71077 -0.07547,1.95591 l 0.02443,1.83555 0.720809,0.0451 0.720808,0.0451 0.02653,0.71036 0.02653,0.71036 0.469024,-0.0563 c 0.257963,-0.031 0.621069,-0.0567 0.806902,-0.0571 z m 0.970553,-1.32934 c -0.271474,-0.0186 -0.524263,-0.082 -0.561752,-0.14101 -0.08123,-0.12775 -0.09463,-1.69756 -0.01623,-1.90185 0.06935,-0.18073 0.955291,-0.20176 1.101047,-0.0262 0.05312,0.064 0.10877,0.39851 0.123658,0.74334 l 0.02707,0.62695 h 1.621819 1.621819 l 0.02707,-0.62695 c 0.03083,-0.71404 0.112567,-0.85972 0.482378,-0.85972 h 0.26213 l -0.02538,1.05731 -0.02538,1.0573 -0.360404,0.0638 c -0.364288,0.0645 -3.367248,0.0694 -4.277835,0.007 z m 9.593799,-0.0132 -0.360404,-0.0548 -0.02543,-1.0643 -0.02544,-1.0643 0.340788,0.0281 0.340786,0.0281 0.04505,0.72081 0.04505,0.72081 h 1.62182 1.62182 l 0.04505,-0.63071 c 0.02478,-0.34689 0.07785,-0.68139 0.117944,-0.74333 0.04484,-0.0693 0.278894,-0.11263 0.608183,-0.11263 h 0.535288 v 1.06799 1.06799 l -0.689352,0.0583 c -0.827942,0.07 -3.714861,0.0549 -4.221157,-0.0221 z m -11.698124,-2.32236 c -0.03304,-0.033 -0.06007,-0.39361 -0.06007,-0.80127 0,-0.85855 -0.0081,-0.85059 0.86333,-0.85059 h 0.578288 v 0.85597 0.85596 h -0.660742 c -0.363407,0 -0.687771,-0.027 -0.720808,-0.0601 z m 6.877716,-1.64835 v -1.71543 h -0.897841 c -0.795454,0 -0.908477,-0.0199 -0.991112,-0.17427 -0.11643,-0.21755 -0.120536,-1.53505 -0.0054,-1.71785 0.06267,-0.0995 0.318058,-0.14704 0.967206,-0.1802 l 0.882049,-0.0451 0.02622,-0.74679 0.02623,-0.74679 0.784685,0.026 0.784684,0.026 0.02641,0.75814 c 0.01901,0.54571 -0.0062,0.77885 -0.0901,0.83205 -0.06408,0.0407 -0.405793,0.0745 -0.759361,0.0753 l -0.642851,0.001 -0.05281,0.47303 c -0.02905,0.26017 -0.05166,0.68435 -0.05025,0.94263 l 0.0026,0.4696 0.783199,0.026 0.783199,0.026 v 1.66687 1.66687 l -0.788385,0.026 -0.788384,0.026 v -1.71543 z m 9.860653,1.59164 c -0.02626,-0.0684 -0.03578,-0.44519 -0.02116,-0.83725 l 0.02657,-0.71284 h 0.720809 0.720809 v 0.81091 0.81091 l -0.699648,0.0263 c -0.530461,0.02 -0.711191,-0.004 -0.747385,-0.0981 z M 16.815736,273.2156 c -0.102268,-0.26651 -0.06603,-1.35817 0.0489,-1.4731 0.06665,-0.0666 0.393738,-0.10812 0.852791,-0.10812 0.63731,0 0.757772,0.0245 0.835564,0.16984 0.09844,0.18394 0.03137,1.26634 -0.08637,1.39384 -0.03911,0.0424 -0.413235,0.0984 -0.831383,0.12445 -0.661573,0.0413 -0.76796,0.0274 -0.819496,-0.10691 z m 13.59109,0.0522 -0.360404,-0.0567 -0.02606,-0.68431 c -0.0335,-0.87943 -4.43e-4,-0.90741 1.030791,-0.87357 l 0.797294,0.0261 v 0.81091 0.81091 l -0.540606,0.0116 c -0.297334,0.006 -0.702789,-0.0139 -0.901011,-0.0451 z m -19.540699,12.46419 c -0.08603,-0.2242 -0.06426,-4.66511 0.02355,-4.80368 0.04239,-0.0669 0.213974,-0.14962 0.381296,-0.18384 0.246993,-0.0505 0.31291,-0.11238 0.350411,-0.32888 0.02694,-0.15552 0.10215,-0.26666 0.180456,-0.26666 0.116114,0 0.134267,0.38373 0.134267,2.83818 v 2.83819 l -0.506845,0.0267 c -0.401587,0.0212 -0.518534,-0.004 -0.563131,-0.11999 z"
       style="fill:#838383;stroke-width:0.09010109" />
    <path
       inkscape:connector-curvature="0"
       id="path830"
       d="m 42.029866,295.78158 c 0.03063,-0.0496 0.07357,-0.0901 0.09542,-0.0901 0.02185,0 0.03973,0.0405 0.03973,0.0901 0,0.0496 -0.04294,0.0901 -0.09542,0.0901 -0.05248,0 -0.07036,-0.0405 -0.03973,-0.0901 z m -31.444634,-1.73445 c -0.02132,-0.0619 -0.05045,-0.25454 -0.06475,-0.42798 l -0.026,-0.31536 -0.6004201,-0.0265 c -0.338867,-0.0149 -0.641071,-0.0754 -0.693738,-0.1389 -0.05133,-0.0618 -0.105501,-0.39457 -0.12039,-0.7394 l -0.02707,-0.62695 -0.585657,-0.0451 -0.585657,-0.0451 v -2.82836 c 0,-3.07564 -0.04125,-2.8088 0.47303,-3.06026 0.128655,-0.0629 0.162462,-0.21998 0.183673,-0.85337 l 0.026,-0.77628 -0.251249,-0.0552 c -0.138186,-0.0303 -0.30193,-0.0708 -0.363874,-0.0899 -0.08808,-0.0271 -0.112626,-0.98718 -0.112626,-4.40426 0,-4.9731 -0.07368,-4.5561 0.804986,-4.5561 h 0.456429 v -0.68168 c 0,-0.98837 0.03668,-1.03024 0.9024641,-1.03024 0.826083,0 0.79242,0.0419 0.831592,-1.03616 l 0.02291,-0.63071 0.675759,-0.0451 0.675758,-0.0451 0.02614,-0.85109 c 0.01438,-0.46809 0.07002,-0.90396 0.123659,-0.96858 0.06115,-0.0737 0.30764,-0.11751 0.660881,-0.11751 0.558885,0 0.56381,-0.002 0.619675,-0.28156 0.03097,-0.15486 0.05631,-0.51794 0.05631,-0.80683 0,-0.5226 0.0015,-0.52551 0.292829,-0.57371 0.251991,-0.0417 0.482856,-0.0356 1.036162,0.0274 0.08029,0.009 0.112627,0.23336 0.112627,0.78092 0,0.74159 -0.008,0.77112 -0.231119,0.85596 -0.127115,0.0483 -0.451479,0.0879 -0.720808,0.0879 h -0.489691 v 0.75849 c 0,1.06299 0.01446,1.04354 -0.775499,1.04354 H 12.25145 v 0.90101 0.90101 h 0.674042 c 0.778042,0 0.750763,0.0358 0.78971,-1.03616 l 0.02291,-0.63071 0.720809,-0.0451 0.720809,-0.0451 0.04505,-0.90101 0.04505,-0.90102 0.540606,-0.0232 c 0.976493,-0.0419 0.935433,-0.004 0.965091,-0.90118 l 0.02602,-0.78755 0.806218,-0.0263 c 0.44342,-0.0145 0.860603,-0.0714 0.927074,-0.12659 0.08631,-0.0716 0.113408,-0.29589 0.09479,-0.78462 l -0.02607,-0.68431 h -0.901013 -0.90101 l -0.04505,0.72081 -0.04505,0.7208 -0.747038,0.0262 -0.747038,0.0262 0.02623,-0.74704 0.02623,-0.74704 0.660407,-0.0513 c 0.428448,-0.0333 0.689048,-0.0966 0.741954,-0.1802 0.04485,-0.0709 0.08217,-0.40255 0.08293,-0.73705 l 0.0014,-0.60818 h 0.75849 c 1.042137,0 1.043261,-6.8e-4 1.044912,-0.66287 7.15e-4,-0.30442 0.03529,-0.60698 0.07675,-0.67235 0.05639,-0.0889 0.490724,-0.12848 1.724905,-0.15703 0.907246,-0.021 1.66147,-0.0501 1.676056,-0.0647 0.01458,-0.0146 0.05885,-0.28856 0.09838,-0.60884 l 0.07186,-0.58231 h 2.162312 2.162312 l 0.0268,0.56225 c 0.03661,0.768 0.07826,0.78523 1.726482,0.71447 1.751665,-0.0752 1.715608,-0.0882 1.715608,0.61947 0,0.78385 0.100995,0.87123 0.982304,0.84985 0.376511,-0.009 0.729298,-0.0124 0.783971,-0.007 0.05735,0.005 0.124116,0.30165 0.157808,0.70023 0.03212,0.38 0.08184,0.7145 0.11048,0.74333 0.02864,0.0288 0.363083,0.0727 0.743202,0.0975 l 0.691127,0.0451 0.02606,0.73654 0.02606,0.73655 0.604648,0.0573 c 0.332557,0.0315 0.665466,0.0654 0.7398,0.0754 0.106127,0.0142 0.140742,0.18721 0.161184,0.80549 0.02872,0.86853 -0.01693,0.81787 0.711209,0.7893 0.685105,-0.0269 0.749427,0.062 0.749427,1.03569 0,0.97295 -0.04809,0.92382 0.946061,0.96647 l 0.540606,0.0232 0.02591,0.83343 0.02591,0.83344 h 0.5882 c 0.895074,0 0.936757,0.0422 0.936757,0.94923 v 0.76269 l 0.518081,0.001 c 0.284944,6.8e-4 0.569153,0.0338 0.631574,0.0734 0.08926,0.0567 0.108498,1.0136 0.0901,4.48115 l -0.02339,4.4091 -0.225253,0.0312 c -0.387466,0.0536 -0.450505,0.17445 -0.450505,0.86366 0,0.71029 0.0991,0.92332 0.450505,0.9684 l 0.225253,0.0289 v 2.88323 2.88323 l -0.585657,0.0451 -0.585657,0.0451 -0.02707,0.62695 c -0.01489,0.34482 -0.07053,0.67932 -0.123658,0.74333 -0.0601,0.0724 -0.309525,0.11638 -0.660182,0.11638 -0.632412,0 -0.736537,0.0721 -0.781023,0.54097 l -0.02989,0.31499 h -0.713172 -0.713192 l -0.09772,-0.40545 -0.09772,-0.40546 -1.300335,-0.0251 c -0.771158,-0.0149 -1.348664,-0.0652 -1.419092,-0.12366 -0.08943,-0.0742 -0.118757,-0.46298 -0.118757,-1.5742 v -1.47563 h -0.764143 c -0.864045,0 -0.832861,-0.0304 -0.879183,0.85596 l -0.02354,0.4505 -0.810232,0.0264 c -0.445627,0.0145 -0.850735,0.0668 -0.90024,0.11636 -0.04951,0.0495 -0.110629,0.32146 -0.13583,0.60435 l -0.04582,0.51435 -5.576201,0.0232 c -3.926158,0.0163 -5.611244,-0.006 -5.694621,-0.0751 -0.06514,-0.0541 -0.130477,-0.32801 -0.145218,-0.60887 l -0.0268,-0.5106 -0.855961,-0.0451 -0.85596,-0.0451 -0.02663,-0.5555 c -0.01464,-0.30551 -0.07715,-0.59742 -0.138906,-0.64867 -0.06175,-0.0512 -0.394409,-0.10536 -0.739232,-0.12025 l -0.626951,-0.0271 -0.04505,-0.67576 -0.04505,-0.67576 -0.78495,-0.026 -0.784951,-0.026 -0.04836,-0.28937 c -0.0266,-0.15916 -0.05855,-0.4921 -0.07101,-0.73988 l -0.02265,-0.4505 -0.495556,-0.0451 -0.495556,-0.0451 v -4.14465 -4.14465 l 0.56249,-0.0268 c 0.648319,-0.0309 0.684387,-0.0833 0.636672,-0.92407 l -0.02785,-0.49074 -0.585657,-0.0451 -0.585657,-0.0451 -0.02432,-1.91465 -0.02432,-1.91465 h -0.802632 -0.802634 l -0.05188,0.47303 c -0.02854,0.26017 -0.06186,0.63521 -0.07406,0.83344 l -0.02218,0.3604 -0.6989911,0.0263 -0.698991,0.0263 0.02323,5.37974 0.02323,5.37974 0.286119,0.0277 c 0.376266,0.0365 0.4625261,0.15715 0.4965031,0.69465 0.02449,0.38737 0.0619,0.46355 0.27844,0.5669 l 0.250152,0.11939 -0.0249,1.32293 -0.0249,1.32294 -0.6307081,0.0451 -0.630708,0.0451 v 0.72081 0.72081 h 0.7208091 0.720809 l 0.02553,-0.63071 c 0.02974,-0.73458 0.129724,-0.85596 0.705129,-0.85596 0.634323,0 0.665907,0.0341 0.665907,0.71942 0,0.75237 0.07724,0.83097 0.780782,0.7945 l 0.525683,-0.0272 0.0261,-0.73873 0.02609,-0.73873 -0.52165,-0.0271 -0.521651,-0.0271 -0.02725,-0.52568 c -0.03425,-0.66073 0.06007,-0.78078 0.613429,-0.78078 0.49174,0 0.536737,0.0725 0.538853,0.86797 0.0014,0.53915 0.0544,0.57041 0.969817,0.57241 l 0.563132,10e-4 v 1.4244 c 0,0.99899 -0.03364,1.46945 -0.112627,1.57526 -0.09468,0.12683 -0.320545,0.15469 -1.417671,0.1749 l -1.305045,0.024 -0.05165,0.31841 c -0.02841,0.17513 -0.08212,0.36773 -0.119365,0.42799 -0.095,0.15371 -1.490115,0.15095 -1.543104,-0.003 z m 26.0656,-2.60843 c 0.06256,-0.0625 0.108121,-0.36226 0.108121,-0.71117 0,-0.66265 0.04091,-0.71242 0.585657,-0.71242 0.545693,0 0.585657,0.0491 0.585657,0.71941 0,0.76772 0.06722,0.82904 0.870376,0.79408 l 0.616292,-0.0268 0.02683,-0.61629 c 0.01594,-0.36614 -0.01459,-0.66619 -0.0752,-0.73923 -0.06061,-0.073 -0.327543,-0.13375 -0.657535,-0.14957 l -0.555503,-0.0266 -0.02599,-1.17131 c -0.03023,-1.3624 -0.0072,-1.50087 0.270012,-1.62182 0.173589,-0.0757 0.213664,-0.17623 0.251538,-0.63071 l 0.04505,-0.54061 0.360404,-0.0451 0.360405,-0.0451 0.02323,-5.38354 0.02323,-5.38354 h -0.613399 c -0.356952,0 -0.658599,-0.0452 -0.721518,-0.10812 -0.06672,-0.0667 -0.108121,-0.39444 -0.108121,-0.85596 v -0.74784 h -0.85596 -0.855961 l -0.0014,1.82455 c -7.15e-4,1.0035 -0.03214,1.87293 -0.06974,1.93207 -0.0376,0.0591 -0.310659,0.11996 -0.606803,0.13515 l -0.538444,0.0276 v 0.67576 0.67575 l 0.538443,0.0276 c 0.296145,0.0152 0.569206,0.076 0.606803,0.13515 0.08068,0.1269 0.09643,7.91068 0.01643,8.11915 -0.0393,0.1024 -0.175689,0.14253 -0.484523,0.14253 -0.241347,0 -0.472189,0.051 -0.526423,0.11638 -0.05312,0.064 -0.10877,0.39851 -0.123658,0.74333 l -0.02707,0.62695 -0.765859,0.0451 -0.76586,0.0451 -0.02625,0.64251 -0.02626,0.6425 0.326765,0.0613 c 0.179721,0.0337 0.546309,0.0339 0.814641,3.5e-4 l 0.487875,-0.061 v 0.71618 c 0,0.3939 0.02703,0.7432 0.06007,0.77624 0.106748,0.10675 1.339583,0.066 1.45363,-0.048 z m -1.513699,-2.04466 c 0,-0.68243 0.0385,-0.73045 0.585657,-0.73045 0.547156,0 0.585657,0.048 0.585657,0.73045 v 0.62107 H 35.72279 35.137133 Z m 1.663891,-3.63401 c -0.02522,-0.0657 -0.03486,-0.96989 -0.02143,-2.00928 l 0.02441,-1.88979 h 0.540607 0.540606 v 1.98222 1.98223 l -0.519171,0.027 c -0.36819,0.0192 -0.532505,-0.008 -0.565021,-0.0924 z m -8.237174,3.78245 c 0.02703,-0.23516 0.08823,-0.46665 0.135989,-0.51441 0.04776,-0.0478 0.471647,-0.0986 0.941965,-0.11303 l 0.855123,-0.0262 0.02292,-0.63071 c 0.03789,-1.04273 0.03385,-1.03616 0.637338,-1.03616 0.688909,0 0.812814,-0.10566 0.845297,-0.72081 l 0.02617,-0.49556 0.765859,-0.0451 0.765859,-0.0451 0.04505,-1.03616 0.04505,-1.03616 0.495556,-0.0234 c 0.960476,-0.0453 0.910878,0.0131 0.88161,-1.03784 l -0.02565,-0.92103 -0.675758,-0.0451 c -0.600674,-0.0401 -0.675758,-0.0651 -0.675758,-0.22526 0,-0.15552 0.06785,-0.1834 0.495556,-0.20355 0.978301,-0.0461 0.909628,0.0593 0.881013,-1.35304 l -0.02505,-1.23654 -0.694741,-0.0263 -0.694742,-0.0263 -0.07659,0.29656 -0.07659,0.29655 -1.030689,0.0451 -1.030688,0.0451 -0.04591,0.51544 c -0.02525,0.28349 -0.03151,0.69647 -0.01391,0.91773 0.02788,0.35053 0.06566,0.41401 0.293688,0.49351 l 0.261693,0.0912 v 1.12131 c 0,1.24141 0.0057,1.23001 -0.615552,1.23148 -0.18178,3.4e-4 -0.542057,0.0262 -0.800616,0.0573 l -0.470106,0.0565 -0.02545,0.95083 -0.02545,0.95082 -0.292828,0.0757 c -0.246695,0.0638 -0.292829,0.11739 -0.292829,0.34027 0,0.16934 -0.06272,0.29813 -0.174279,0.35783 -0.187868,0.10054 -9.166861,0.1349 -9.534113,0.0365 -0.146372,-0.0392 -0.202727,-0.12154 -0.202727,-0.2961 0,-0.32148 -0.153105,-0.45802 -0.513577,-0.45802 -0.163533,0 -0.305471,-0.0101 -0.315417,-0.0225 -0.0099,-0.0124 -0.04036,-0.91453 -0.06758,-2.00475 l -0.04949,-1.98222 -0.244635,-0.0282 c -0.29785,-0.0343 -0.331562,0.0727 -0.363477,1.15447 l -0.0226,0.76586 -0.417053,0.027 c -0.643012,0.0417 -0.709485,-0.0736 -0.707831,-1.2273 7.15e-4,-0.52918 0.03117,-1.00773 0.06758,-1.06345 0.03641,-0.0557 0.199349,-0.1302 0.36209,-0.16551 l 0.295895,-0.0642 -0.02559,-0.91571 -0.02559,-0.9157 -1.026677,-0.0451 c -1.059452,-0.0465 -1.088167,-0.0577 -1.216522,-0.47303 -0.0406,-0.1314 -0.158808,-0.15768 -0.709289,-0.15768 -0.393639,0 -0.704256,0.0437 -0.768687,0.10812 -0.152819,0.15282 -0.150214,2.28796 0.0029,2.38259 0.06106,0.0377 0.395565,0.0908 0.743333,0.11795 0.555797,0.0433 0.632306,0.0711 0.632306,0.22952 0,0.16035 -0.06909,0.18319 -0.626951,0.20728 -0.344823,0.0149 -0.679324,0.0705 -0.743334,0.12365 -0.07889,0.0655 -0.116383,0.35071 -0.116383,0.88544 0,0.53474 0.03749,0.81996 0.116383,0.88543 0.06401,0.0531 0.398511,0.10877 0.743334,0.12366 l 0.626951,0.0271 0.04505,1.03617 0.04505,1.03616 0.671733,0.0268 c 0.369452,0.0148 0.724225,0.0704 0.788384,0.12366 0.06891,0.0572 0.116653,0.29441 0.116653,0.57962 0,0.53891 0.01651,0.55108 0.810909,0.59763 l 0.405455,0.0238 0.02664,0.71654 c 0.01465,0.3941 0.0703,0.76915 0.123659,0.83344 0.06586,0.0794 0.348075,0.11689 0.878871,0.11689 0.487977,0 0.822498,0.0406 0.889979,0.10812 0.05947,0.0595 0.108121,0.27571 0.108121,0.48054 0,0.20483 0.02743,0.39985 0.06095,0.43337 0.03352,0.0335 1.949295,0.0504 4.257276,0.0375 l 4.196328,-0.0234 z m -5.018267,-3.60591 c 0.13252,-0.0969 0.152086,-0.24286 0.129847,-0.96859 l -0.02618,-0.8545 -0.675758,-0.0451 c -0.449129,-0.0299 -0.758462,-0.10114 -0.922363,-0.21232 -0.202246,-0.13718 -0.377158,-0.16134 -0.972393,-0.13431 -0.517413,0.0235 -0.750167,0.0715 -0.810703,0.16727 -0.0997,0.1577 -0.115506,1.80043 -0.01872,1.94535 0.118848,0.17795 0.318064,0.20192 1.738371,0.20913 0.998683,0.005 1.446747,-0.0257 1.557904,-0.10698 z m 4.815949,0.006 c 0.07061,-0.0706 0.108121,-0.44235 0.108121,-1.07157 0,-1.11444 -0.03523,-1.07283 0.90838,-1.07283 h 0.623338 v -0.98148 c 0,-1.12677 0.02712,-1.09162 -0.840804,-1.08947 -0.806294,0.002 -0.820871,0.0203 -0.857034,1.07643 l -0.03097,0.90442 h -0.700215 c -0.563784,0 -0.74485,0.0351 -0.929304,0.1802 -0.198641,0.15625 -0.365521,0.1802 -1.255546,0.1802 -0.67822,0 -1.063137,0.0367 -1.134578,0.10812 -0.06777,0.0678 -0.108121,0.4051 -0.108121,0.90392 0,0.74105 0.01394,0.80139 0.202728,0.87728 0.320198,0.1287 3.883591,0.11519 4.014003,-0.0152 z m -8.189066,-4.34236 c 0.06865,-0.0827 0.09551,-0.45981 0.07861,-1.10374 l -0.02567,-0.97809 -0.744173,-0.0262 c -0.729148,-0.0256 -0.745976,-0.0214 -0.833435,0.20859 -0.128316,0.3375 -0.114084,1.784 0.01886,1.91695 0.15734,0.15734 1.372421,0.1432 1.50581,-0.0175 z m 6.296943,0.0175 c 0.160703,-0.16071 0.147215,-1.9097 -0.01577,-2.04496 -0.08694,-0.0722 -0.752094,-0.0956 -2.230001,-0.0786 l -2.10611,0.0242 -0.02562,1.02893 c -0.01899,0.76257 0.0043,1.04794 0.0901,1.10236 0.194308,0.12329 4.161727,0.0937 4.287401,-0.0319 z m 4.14465,0 c 0.06909,-0.0691 0.108121,-0.42066 0.108121,-0.9739 0,-0.92819 -0.102344,-1.21594 -0.41141,-1.15672 -0.157645,0.0302 -0.1767,0.12717 -0.199991,1.01765 -0.01416,0.54134 -0.0053,1.03754 0.0197,1.10267 0.05681,0.14805 0.339798,0.15408 0.483582,0.0103 z m -14.195426,-2.95455 c 0.265008,-6.8e-4 0.337879,-0.0358 0.337879,-0.16296 0,-0.38414 -0.115347,-0.37843 7.636249,-0.37843 h 7.420006 l 0.09423,0.2703 c 0.09054,0.25973 0.116806,0.27094 0.671072,0.2864 0.317263,0.009 0.66807,0.019 0.77957,0.0225 0.188955,0.006 0.205788,-0.0395 0.247778,-0.66932 l 0.04505,-0.67576 0.70003,-0.0264 0.70003,-0.0264 -0.02427,-1.95588 -0.02427,-1.95587 -0.695066,-0.0263 -0.695065,-0.0262 -0.02574,-0.87476 -0.02574,-0.87475 -0.765859,-0.0451 -0.765859,-0.0451 -0.0228,-0.67576 c -0.03859,-1.14379 0.01692,-1.08121 -0.958997,-1.08121 -0.581075,0 -0.873371,-0.0363 -0.940226,-0.1169 -0.05336,-0.0643 -0.109005,-0.43934 -0.123659,-0.83343 l -0.02664,-0.71654 -1.689396,-0.0245 -1.689395,-0.0245 v 0.76785 0.76784 h 0.804474 c 1.040782,0 1.087649,0.0432 1.087649,1.00347 0,1.05449 -0.01398,1.06886 -1.039332,1.06886 h -0.852791 v 0.61656 c 0,0.33911 -0.02659,1.11101 -0.05908,1.71534 l -0.05908,1.09878 -0.729304,-0.026 -0.729304,-0.0259 -0.0247,-1.56492 c -0.01701,-1.07775 0.0075,-1.60367 0.07861,-1.6894 0.07089,-0.0854 0.312889,-0.12447 0.771185,-0.12447 h 0.667878 l -0.02568,-0.92354 -0.02568,-0.92354 -0.540606,-0.0232 c -0.998388,-0.0428 -0.9568,-0.002 -0.927006,-0.90293 l 0.026,-0.7858 0.765859,-0.0451 0.765859,-0.0451 0.04505,-0.76586 0.04505,-0.76586 1.62182,-0.0451 1.621819,-0.0451 v -0.63071 -0.6307 l -1.640182,-0.0246 -1.640182,-0.0246 -0.02669,0.6102 -0.02669,0.6102 h -0.76586 -0.765859 l -0.02725,-0.52568 c -0.037,-0.71392 0.03605,-0.78079 0.852981,-0.78079 h 0.668516 l -0.02632,-0.69828 -0.02631,-0.69828 -2.094851,-0.0242 -2.09485,-0.0242 v 0.4409 c 0,0.2425 -0.02501,0.56596 -0.05558,0.71881 l -0.05558,0.27791 0.798915,0.0262 0.798915,0.0262 v 0.63071 0.6307 l -0.788385,0.026 -0.788384,0.026 v -0.6362 -0.63621 l -1.689395,0.0245 -1.689396,0.0245 v 0.63071 0.63071 l 1.62182,0.0451 1.621819,0.0451 0.02604,0.78838 0.02603,0.78839 h -1.673206 c -1.259173,0 -1.682172,0.0279 -1.709441,0.11262 -0.01993,0.062 -0.05909,0.41322 -0.08702,0.78062 -0.02793,0.36739 -0.07436,0.69176 -0.103177,0.72081 -0.02882,0.029 -0.424254,0.0731 -0.878745,0.0979 l -0.826346,0.0451 -0.02646,0.76136 c -0.01456,0.41876 -0.06884,0.81244 -0.120633,0.87485 -0.05666,0.0683 -0.369153,0.12389 -0.784449,0.13964 l -0.690277,0.0262 -0.04505,0.85596 -0.04505,0.85596 -0.645344,0.0263 c -0.399751,0.0163 -0.683359,0.0721 -0.745234,0.14667 -0.06776,0.0817 -0.09203,0.71077 -0.07547,1.95591 l 0.02443,1.83555 0.720809,0.0451 0.720808,0.0451 0.02653,0.71036 0.02653,0.71036 0.469024,-0.0563 c 0.257963,-0.031 0.621069,-0.0567 0.806902,-0.0571 z m 0.970553,-1.32934 c -0.271474,-0.0186 -0.524263,-0.082 -0.561752,-0.14101 -0.08123,-0.12775 -0.09463,-1.69756 -0.01623,-1.90185 0.06935,-0.18073 0.955291,-0.20176 1.101047,-0.0262 0.05312,0.064 0.10877,0.39851 0.123658,0.74334 l 0.02707,0.62695 h 1.621819 1.621819 l 0.02707,-0.62695 c 0.03083,-0.71404 0.112567,-0.85972 0.482378,-0.85972 h 0.26213 l -0.02538,1.05731 -0.02538,1.0573 -0.360404,0.0638 c -0.364288,0.0645 -3.367248,0.0694 -4.277835,0.007 z m 9.593799,-0.0132 -0.360404,-0.0548 -0.02543,-1.0643 -0.02544,-1.0643 0.340788,0.0281 0.340786,0.0281 0.04505,0.72081 0.04505,0.72081 h 1.62182 1.62182 l 0.04505,-0.63071 c 0.02478,-0.34689 0.07785,-0.68139 0.117944,-0.74333 0.04484,-0.0693 0.278894,-0.11263 0.608183,-0.11263 h 0.535288 v 1.06799 1.06799 l -0.689352,0.0583 c -0.827942,0.07 -3.714861,0.0549 -4.221157,-0.0221 z m -11.698124,-2.32236 c -0.03304,-0.033 -0.06007,-0.39361 -0.06007,-0.80127 0,-0.85855 -0.0081,-0.85059 0.86333,-0.85059 h 0.578288 v 0.85597 0.85596 h -0.660742 c -0.363407,0 -0.687771,-0.027 -0.720808,-0.0601 z m 6.877716,-1.64835 v -1.71543 h -0.897841 c -0.795454,0 -0.908477,-0.0199 -0.991112,-0.17427 -0.11643,-0.21755 -0.120536,-1.53505 -0.0054,-1.71785 0.06267,-0.0995 0.318058,-0.14704 0.967206,-0.1802 l 0.882049,-0.0451 0.02622,-0.74679 0.02623,-0.74679 0.784685,0.026 0.784684,0.026 0.02641,0.75814 c 0.01901,0.54571 -0.0062,0.77885 -0.0901,0.83205 -0.06408,0.0407 -0.405793,0.0745 -0.759361,0.0753 l -0.642851,10e-4 -0.05281,0.47303 c -0.02905,0.26017 -0.05166,0.68435 -0.05025,0.94263 l 0.0026,0.4696 0.783199,0.026 0.783199,0.026 v 1.66687 1.66687 l -0.788385,0.026 -0.788384,0.026 v -1.71543 z m 9.860653,1.59164 c -0.02626,-0.0684 -0.03578,-0.44519 -0.02116,-0.83725 l 0.02657,-0.71284 h 0.720809 0.720809 v 0.81091 0.81091 l -0.699648,0.0263 c -0.530461,0.02 -0.711191,-0.004 -0.747385,-0.0981 z M 16.815736,273.2157 c -0.102268,-0.26651 -0.06603,-1.35817 0.0489,-1.4731 0.06665,-0.0666 0.393738,-0.10812 0.852791,-0.10812 0.63731,0 0.757772,0.0245 0.835564,0.16984 0.09844,0.18394 0.03137,1.26634 -0.08637,1.39384 -0.03911,0.0424 -0.413235,0.0984 -0.831383,0.12445 -0.661573,0.0413 -0.76796,0.0274 -0.819496,-0.10691 z m 13.59109,0.0522 -0.360404,-0.0567 -0.02606,-0.68431 c -0.0335,-0.87943 -4.43e-4,-0.90741 1.030791,-0.87357 l 0.797294,0.0261 v 0.81091 0.81091 l -0.540606,0.0116 c -0.297334,0.006 -0.702789,-0.0139 -0.901011,-0.0451 z m 5.972411,-0.84103 0.02574,-0.87447 -0.656448,-0.0265 -0.656447,-0.0265 -0.02579,-0.87849 -0.02579,-0.87848 -0.60492,-0.001 c -0.332706,-6.9e-4 -0.653895,-0.0325 -0.713753,-0.0706 -0.06826,-0.0434 -0.118644,-0.37036 -0.135151,-0.87711 l -0.02632,-0.80794 -0.76299,-0.0265 c -0.470608,-0.0163 -0.789456,-0.0681 -0.832055,-0.13515 -0.03799,-0.0598 -0.06969,-0.40404 -0.07045,-0.76505 l -0.0014,-0.65638 -0.923536,0.0257 -0.923536,0.0257 -0.02664,0.66156 c -0.01652,0.41018 0.01335,0.70976 0.07861,0.78839 0.07679,0.0925 0.333728,0.12682 0.950177,0.12682 h 0.844928 v 0.75482 c 0,0.50784 0.03817,0.78651 0.116652,0.85164 0.06416,0.0533 0.418932,0.1089 0.788385,0.12366 l 0.671732,0.0268 0.04505,0.90101 0.04505,0.90101 0.626951,0.0271 c 0.344823,0.0149 0.679324,0.0705 0.743334,0.12366 0.0767,0.0636 0.116383,0.3335 0.116383,0.79135 0,0.38212 0.02869,0.72345 0.06376,0.75852 0.03507,0.0351 0.329022,0.052 0.653233,0.0375 l 0.589476,-0.0262 z m -25.51311,13.30522 c -0.08603,-0.2242 -0.06426,-4.66511 0.02355,-4.80368 0.04239,-0.0669 0.213974,-0.14962 0.381296,-0.18384 0.246993,-0.0505 0.31291,-0.11238 0.350411,-0.32888 0.02694,-0.15552 0.10215,-0.26666 0.180456,-0.26666 0.116114,0 0.134267,0.38373 0.134267,2.83818 v 2.83819 l -0.506845,0.0267 c -0.401587,0.0212 -0.518534,-0.004 -0.563131,-0.11999 z"
       style="fill:#595959;stroke-width:0.09010109" />
    <path
       inkscape:connector-curvature="0"
       id="path828"
       d="m 11.358195,294.89127 c -0.03494,-0.0349 -0.06415,-0.16827 -0.06491,-0.29629 -0.0025,-0.41123 -0.129225,-0.49991 -0.783625,-0.54812 l -0.6115623,-0.0451 -0.02607,-0.68468 -0.02607,-0.68469 1.2591413,-0.0623 c 0.692527,-0.0343 1.619478,-0.0351 2.059891,-0.002 1.122407,0.0847 1.193113,0.0366 1.193113,-0.81248 0,-0.52141 0.03043,-0.67463 0.142521,-0.71764 0.206164,-0.0791 0.963778,-0.0646 1.098736,0.0211 0.08716,0.0553 0.108969,0.42028 0.0901,1.50781 l -0.02489,1.43483 -1.300335,0.0251 c -0.734579,0.0142 -1.349816,0.0662 -1.414062,0.11949 -0.06255,0.0519 -0.126127,0.24334 -0.141282,0.4254 l -0.02756,0.33102 -0.679809,0.026 c -0.373895,0.0143 -0.708395,-0.003 -0.743334,-0.0375 z m 25.850177,-0.0859 c -0.03008,-0.0784 -0.05469,-0.23561 -0.05469,-0.34938 0,-0.11377 -0.05344,-0.2512 -0.118757,-0.30541 -0.07043,-0.0584 -0.647934,-0.10877 -1.419092,-0.12366 l -1.300336,-0.0251 v -1.48666 -1.48667 h 0.630708 0.630707 l 0.04505,0.70178 c 0.03099,0.48274 0.08723,0.73062 0.180202,0.79421 0.08456,0.0578 0.521625,0.0728 1.167603,0.0401 0.567848,-0.0288 1.512125,-0.0252 2.098393,0.008 l 1.065943,0.0602 -0.02607,0.68456 -0.02607,0.68456 -0.585657,0.0247 c -0.662141,0.028 -0.901011,0.2032 -0.901011,0.661 v 0.26032 h -0.666118 c -0.524295,0 -0.677763,-0.0303 -0.720809,-0.14251 z M 19.373734,293.4462 c -0.03304,-0.033 -0.06007,-0.31252 -0.06007,-0.62107 0,-0.42844 0.03368,-0.57392 0.142521,-0.61569 0.07839,-0.0301 2.61248,-0.0547 5.631318,-0.0547 H 30.5763 l 0.0014,-0.51808 c 0.002,-0.75745 0.03063,-0.78007 1.053702,-0.83292 l 0.882092,-0.0456 0.02663,-0.55551 c 0.01582,-0.32999 0.07654,-0.59692 0.149567,-0.65753 0.07304,-0.0606 0.373086,-0.0911 0.739232,-0.0752 l 0.616293,0.0268 0.02625,0.69457 0.02625,0.69459 -0.747057,0.0262 -0.747057,0.0262 -0.02354,0.45051 c -0.04628,0.88551 -0.01618,0.85595 -0.871814,0.85595 -1.010204,0 -1.041815,0.0165 -1.041815,0.54288 0,0.79138 0.574875,0.71854 -5.670991,0.71854 -3.058886,0 -5.588642,-0.027 -5.621678,-0.0601 z m -10.5806443,-0.91495 -0.204002,-0.029 0.0238,-2.80277 0.0238,-2.80277 0.262624,-0.0702 c 0.364346,-0.0974 0.410375,-0.20719 0.410375,-0.97886 0,-0.77166 -0.04603,-0.88145 -0.410375,-0.97889 l -0.262624,-0.0702 v -4.36342 -4.36342 h 0.540606 0.540607 l 0.06417,6.66748 c 0.03529,3.66711 0.04054,7.37703 0.01165,8.24425 l -0.05252,1.57677 h -0.372058 c -0.204632,0 -0.463859,-0.013 -0.57606,-0.029 z m 31.4814343,-1.52529 c -0.02933,-0.83005 -0.02384,-4.52983 0.01221,-8.22172 l 0.06554,-6.71253 0.506845,-0.0267 c 0.356264,-0.0188 0.516875,0.008 0.540606,0.0901 0.01857,0.0642 0.01349,2.04014 -0.01129,4.39091 l -0.04505,4.27412 -0.292829,0.0758 -0.292828,0.0758 v 0.89586 0.89586 l 0.292828,0.0759 0.292829,0.0759 0.02381,2.80996 0.02381,2.80996 h -0.53157 -0.53157 z m -22.80429,1.03977 c -0.02566,-0.11348 -0.05725,-0.40906 -0.0702,-0.65684 l -0.02355,-0.4505 -0.702005,-0.0264 -0.702004,-0.0264 0.02625,-0.69442 0.02624,-0.69443 0.585657,-0.0232 c 0.753856,-0.0299 0.844865,0.0331 0.824524,0.5709 -0.02742,0.72491 0.0037,0.75881 0.696046,0.75881 0.837452,0 0.928696,0.083 0.894458,0.81322 l -0.02735,0.58334 -0.740714,0.0261 c -0.708164,0.025 -0.742763,0.0171 -0.787365,-0.1802 z m -3.012349,-2.7175 c -0.06704,-0.0808 -0.09841,-0.3502 -0.08176,-0.70208 l 0.02703,-0.571 h 0.675758 0.675758 v 0.67576 0.67576 l -0.594001,0.0263 c -0.435065,0.0193 -0.623109,-0.009 -0.702787,-0.10476 z m 19.7861,0.067 c -0.109376,-0.10937 -0.06945,-1.07242 0.05131,-1.23757 0.09297,-0.12715 0.226452,-0.15197 0.698283,-0.12985 l 0.583338,0.0274 v 0.67576 0.67576 l -0.634644,0.0261 c -0.349054,0.0143 -0.663281,-0.002 -0.698283,-0.0375 z M 23.6408,284.8751 c -0.456198,-0.0185 -0.724243,-0.0732 -0.830833,-0.16966 -0.137042,-0.12403 -0.365692,-0.13398 -1.77114,-0.0771 -1.212651,0.049 -1.630298,0.0385 -1.680217,-0.0422 -0.03654,-0.0591 -0.06062,-0.4271 -0.05353,-0.81774 0.01737,-0.95584 -0.03565,-1.13262 -0.359131,-1.19731 l -0.262995,-0.0526 v -1.3808 c 0,-0.95382 0.03343,-1.41423 0.108121,-1.48892 0.08198,-0.082 1.593339,-0.10812 6.250994,-0.10812 6.624027,0 6.400003,-0.0162 6.329529,0.45887 -0.02885,0.19451 -0.141753,0.29022 -0.457422,0.38776 -0.138731,0.0429 -0.157677,0.17897 -0.157677,1.13276 0,1.08136 5.45e-4,1.08405 0.214221,1.08405 0.355246,0 0.426,0.18511 0.3976,1.04025 -0.0274,0.8251 -0.136542,1.03991 -0.464422,0.91409 -0.123597,-0.0474 -0.147399,-0.21032 -0.147399,-1.00872 v -0.95215 l -0.878485,0.0258 -0.878486,0.0258 -0.02614,0.85108 c -0.01438,0.4681 -0.07002,0.90396 -0.123659,0.96859 -0.06441,0.0776 -0.328414,0.1175 -0.777675,0.1175 -0.447095,0 -0.728899,0.0424 -0.822403,0.12359 -0.147994,0.12858 -2.196878,0.2224 -3.608857,0.16526 z m -2.814846,-2.34726 c 0.08576,-0.0544 0.109088,-0.3398 0.0901,-1.10236 l -0.02562,-1.02893 -0.744173,-0.0262 c -0.729148,-0.0256 -0.745976,-0.0214 -0.833436,0.20859 -0.128315,0.3375 -0.114084,1.784 0.01886,1.91695 0.122415,0.12241 1.311614,0.14783 1.494268,0.0319 z m 6.308487,-0.0319 c 0.160703,-0.1607 0.147215,-1.9097 -0.01577,-2.04496 -0.08694,-0.0721 -0.752094,-0.0956 -2.230001,-0.0786 l -2.10611,0.0242 -0.02562,1.02893 c -0.01899,0.76257 0.0043,1.04795 0.0901,1.10237 0.194308,0.12328 4.161727,0.0937 4.287401,-0.0319 z M 9.8923737,275.72888 c -0.0265,-0.069 -0.03605,-0.40533 -0.02122,-0.7473 l 0.02695,-0.62177 h 0.6757593 0.675758 v 0.72081 0.72081 l -0.654536,0.0265 c -0.494966,0.02 -0.6662813,-0.004 -0.7027103,-0.099 z m 29.0126863,3.4e-4 c -0.02657,-0.0692 -0.03618,-0.40569 -0.02136,-0.74766 l 0.02695,-0.62177 h 0.585657 0.585657 v 0.72081 0.72081 l -0.564298,0.0269 c -0.418944,0.0199 -0.576742,-0.006 -0.612608,-0.099 z m -27.272511,-1.6019 c -0.216028,-0.12583 -0.228423,-1.26068 -0.01609,-1.47301 0.17093,-0.17094 1.030314,-0.19507 1.191908,-0.0335 0.06441,0.0644 0.108121,0.37492 0.108121,0.76809 0,0.62553 -0.01206,0.66455 -0.231118,0.74784 -0.297765,0.11321 -0.850752,0.10825 -1.052822,-0.009 z m 25.588708,0 c -0.127663,-0.0744 -0.157677,-0.21861 -0.157677,-0.7578 0,-0.41801 0.03996,-0.69066 0.107315,-0.73229 0.137532,-0.085 1.318793,-0.08 1.404572,0.006 0.115327,0.11555 0.03823,1.42413 -0.08864,1.50462 -0.164703,0.10448 -1.076352,0.0897 -1.265568,-0.0205 z m -24.17633,-1.82486 c -0.02536,-0.0661 -0.03422,-0.46141 -0.0197,-0.87849 l 0.02641,-0.75833 0.577452,-0.0272 c 0.401007,-0.0189 0.600187,0.009 0.651853,0.0901 0.103369,0.16297 0.0959,1.18253 -0.01071,1.46295 -0.08097,0.21298 -0.130705,0.23112 -0.633535,0.23112 -0.371655,0 -0.560368,-0.0383 -0.591773,-0.12016 z m 22.778993,0.0158 c -0.163285,-0.16328 -0.150543,-1.46325 0.01569,-1.60122 0.07523,-0.0624 0.343186,-0.0947 0.653233,-0.0786 l 0.525683,0.0273 v 0.85596 0.85596 l -0.541377,0.0263 c -0.343434,0.0167 -0.582274,-0.0146 -0.653233,-0.0856 z m -14.758808,-0.10277 c -0.0262,-0.0683 -0.03567,-0.4449 -0.02105,-0.83697 l 0.02657,-0.71284 0.785797,-0.026 c 0.919244,-0.0304 0.908908,-0.0426 0.863135,1.01899 l -0.02711,0.62882 -0.789858,0.026 c -0.606046,0.02 -0.800942,-0.003 -0.837488,-0.0981 z m 6.253977,0.008 c -0.0537,-0.45942 -0.06513,-1.06399 -0.02484,-1.31341 l 0.04787,-0.29627 0.783656,0.0259 0.783657,0.026 v 0.81091 0.81091 l -0.788384,0.026 c -0.591559,0.0195 -0.791774,-0.003 -0.801959,-0.0901 z m -12.645628,-1.69224 c -0.268443,-0.0466 -0.270487,-0.0515 -0.296944,-0.70788 -0.03353,-0.8318 0.03006,-0.91459 0.702399,-0.91459 0.672422,0 0.735921,0.0827 0.702398,0.9152 l -0.02664,0.66157 -0.405455,0.0463 c -0.223,0.0255 -0.527091,0.0252 -0.675758,-6.8e-4 z m 19.75126,0.0306 c -0.14148,-0.0402 -0.157923,-0.14085 -0.135151,-0.82693 l 0.02593,-0.78113 h 0.630708 0.630707 l 0.02604,0.78839 c 0.02539,0.76883 0.02092,0.78841 -0.180202,0.78937 -0.11343,6.8e-4 -0.348145,0.0179 -0.521589,0.0385 -0.173445,0.0207 -0.387839,0.0169 -0.476433,-0.008 z m -18.464503,-1.8522 c -0.02296,-0.0639 -0.02317,-0.39032 -4.42e-4,-0.72533 0.0474,-0.69941 0.08608,-0.72781 0.925997,-0.68015 l 0.490737,0.0279 v 0.72081 0.7208 l -0.687265,0.0261 c -0.498697,0.019 -0.698719,-0.006 -0.72901,-0.0901 z m 16.748477,0.049 c -0.03304,-0.033 -0.06007,-0.35306 -0.06007,-0.71117 0,-0.73946 0.01993,-0.76048 0.720809,-0.76048 0.708367,0 0.720809,0.0142 0.720809,0.82055 v 0.71117 h -0.660741 c -0.363409,0 -0.687773,-0.027 -0.720809,-0.0601 z m -15.192329,-1.60127 c -0.07687,-0.0926 -0.08642,-0.30415 -0.03356,-0.74333 l 0.07389,-0.61388 0.85596,-0.0451 0.85596,-0.0451 0.02646,-0.6525 c 0.02381,-0.58716 0.04637,-0.65741 0.225253,-0.70149 0.109337,-0.0269 0.867795,-0.0374 1.685462,-0.0233 l 1.486668,0.0257 0.02703,0.571 c 0.01626,0.34341 -0.01508,0.62173 -0.07861,0.69829 -0.08374,0.1009 -0.437322,0.12728 -1.705915,0.12728 -1.833149,0 -1.707794,-0.067 -1.710168,0.9139 -0.0015,0.60373 -0.02298,0.61782 -0.943627,0.61782 -0.46156,0 -0.68936,-0.0386 -0.764802,-0.12946 z m 13.362937,0.0605 c -0.05635,-0.0364 -0.117167,-0.37029 -0.135151,-0.74196 l -0.0327,-0.67576 0.797295,-0.0262 c 0.510364,-0.0168 0.842726,0.0115 0.923536,0.0786 0.189174,0.157 0.175617,1.30589 -0.01628,1.37953 -0.200499,0.0769 -1.412963,0.0657 -1.536702,-0.0143 z m -3.496971,-1.5454 c -0.112334,-0.18176 -0.149762,-0.8781 -0.05973,-1.11121 l 0.0957,-0.24777 h 1.515929 c 1.05892,0 1.548523,0.0326 1.624049,0.10812 0.06289,0.0629 0.108121,0.3644 0.108121,0.7208 v 0.61269 H 29.0499 c -0.889077,0 -1.639483,-0.0372 -1.66757,-0.0826 z m -4.493036,-1.50753 c -0.07636,-0.0764 -0.08141,-0.77645 -0.007,-0.97035 0.04772,-0.12435 0.323948,-0.14252 2.16673,-0.14252 h 2.112035 l -0.02682,0.56313 -0.02682,0.56313 -2.078214,0.0242 c -1.143017,0.0133 -2.105972,-0.004 -2.1399,-0.0375 z"
       style="fill:#181818;stroke-width:0.09010109" />
  </g>
</svg>
