<?xml version="1.0" encoding="UTF-8" standalone="no"?>
<svg
   xmlns:dc="http://purl.org/dc/elements/1.1/"
   xmlns:cc="http://creativecommons.org/ns#"
   xmlns:rdf="http://www.w3.org/1999/02/22-rdf-syntax-ns#"
   xmlns:svg="http://www.w3.org/2000/svg"
   xmlns="http://www.w3.org/2000/svg"
   xmlns:sodipodi="http://sodipodi.sourceforge.net/DTD/sodipodi-0.dtd"
   xmlns:inkscape="http://www.inkscape.org/namespaces/inkscape"
   width="85"
   height="36"
   viewBox="0 0 85 36"
   version="1.1"
   id="svg236"
   sodipodi:docname="mycrew.svg"
   inkscape:version="0.92.5 (2060ec1f9f, 2020-04-08)"
   style="fill:none">
  <metadata
     id="metadata242">
    <rdf:RDF>
      <cc:Work
         rdf:about="">
        <dc:format>image/svg+xml</dc:format>
        <dc:type
           rdf:resource="http://purl.org/dc/dcmitype/StillImage" />
        <dc:title></dc:title>
      </cc:Work>
    </rdf:RDF>
  </metadata>
  <defs
     id="defs240" />
  <sodipodi:namedview
     pagecolor="#ffffff"
     bordercolor="#666666"
     borderopacity="1"
     objecttolerance="10"
     gridtolerance="10"
     guidetolerance="10"
     inkscape:pageopacity="0"
     inkscape:pageshadow="2"
     inkscape:window-width="2560"
     inkscape:window-height="1320"
     id="namedview238"
     showgrid="false"
     inkscape:zoom="8"
     inkscape:cx="55.686581"
     inkscape:cy="24.29614"
     inkscape:window-x="0"
     inkscape:window-y="33"
     inkscape:window-maximized="1"
     inkscape:current-layer="svg236" />
  <g
     id="g1472"
     transform="translate(-24.999999)">
    <path
       sodipodi:nodetypes="ccccccccccccccccccccccccsccccccccccccccccccccccss"
       inkscape:connector-curvature="0"
       id="path265"
       d="M 38.453187,27.669516 C 35.936153,27.02803 33.582554,25.197825 32.413326,22.972789 31.834225,21.870754 31.327658,20.060741 31.321424,19.071357 l -0.003,-0.466193 9.249495,0.04369 9.249493,0.04369 -0.04734,0.760503 c -0.214364,3.441215 -2.679603,6.654815 -6.050411,7.887165 -1.430089,0.522835 -3.900869,0.677327 -5.266441,0.329298 z M 34.359413,16.591138 c -1.233432,-0.375195 -2.340052,-1.366299 -2.829138,-2.533815 -0.383621,-0.915792 -0.327383,-2.539785 0.119954,-3.46386 0.461493,-0.9533309 1.486356,-1.8531553 2.506584,-2.2007814 0.962187,-0.3278525 1.602589,-0.3312245 2.66578,-0.014086 3.864713,1.1530102 3.930574,6.8050994 0.09458,8.1121724 -0.801548,0.273114 -1.853955,0.31439 -2.557716,0.100323 z m 2.185129,-2.98363 c 0.723249,-0.608572 0.734216,-1.571246 0.02601,-2.279488 -0.623601,-0.623596 -1.324237,-0.648699 -2.009599,-0.07199 -0.647231,0.544606 -0.789607,1.128227 -0.449882,1.844135 0.474875,1.000716 1.574677,1.230007 2.433505,0.507351 z m 5.925905,2.040911 -0.920043,-0.931623 1.135731,-1.135738 1.135741,-1.135739 -1.136228,-1.145006 -1.136228,-1.145004 0.967203,-0.9672114 0.967214,-0.9672119 1.145004,1.1362339 1.145003,1.1362284 1.137731,-1.1377166 1.137718,-1.1377233 0.968694,0.9687012 0.968702,0.9686997 -1.136229,1.145004 -1.136237,1.145006 1.13773,1.137722 1.137718,1.137722 -0.968703,0.968698 -0.968693,0.9687 -1.146681,-1.137886 -1.14667,-1.137886 -1.089059,1.098824 c -0.598979,0.604357 -1.131874,1.098829 -1.184216,1.098829 -0.05231,0 -0.509178,-0.41923 -1.015202,-0.931623 z"
       style="fill:#040303;fill-opacity:1;stroke-width:0.16900072" />
    <path
       sodipodi:nodetypes="ccccccccccccccsccccccccccsccccscsccccccccccccscssccccscscccsscccccccccccsccscccscssccccccccccccccccscccccsscccccccccscsccccccccccc"
       inkscape:connector-curvature="0"
       id="path265-6"
       d="m 68.780895,22.446641 c 0.223772,-0.497426 0.541795,-1.212034 0.706711,-1.588017 L 69.78746,20.17502 69.05688,18.499297 C 68.655064,17.57765 68.089737,16.271828 67.800596,15.597472 l -0.525705,-1.226106 1.038702,0.04644 1.038701,0.04644 0.649224,1.679374 c 0.357081,0.923655 0.692326,1.721729 0.744983,1.773497 0.05267,0.05177 0.363708,-0.668561 0.691221,-1.600728 0.327503,-0.932169 0.645506,-1.751587 0.706667,-1.82093 0.06118,-0.06935 0.536103,-0.104733 1.055436,-0.07865 l 0.944238,0.04744 -0.736046,1.730173 c -0.404826,0.951595 -1.252825,2.951126 -1.884452,4.443399 l -1.148403,2.713236 h -1.000568 -1.000558 z m 8.351287,-2.171664 c -3.141731,-1.002 -3.303449,-6.093197 -0.23426,-7.375269 0.926759,-0.38713 2.428765,-0.318574 3.377407,0.154155 0.828427,0.412822 1.51651,1.218957 1.707307,2.000218 l 0.105629,0.432543 h -0.931203 c -0.849483,0 -0.961407,-0.04085 -1.275414,-0.465567 -0.485775,-0.657047 -1.361563,-0.897594 -2.117714,-0.581654 -0.88121,0.368192 -1.24403,1.068625 -1.176325,2.27094 0.04877,0.865895 0.118112,1.050278 0.562065,1.494239 0.433316,0.433312 0.618348,0.506456 1.28114,0.506456 0.660954,0 0.852113,-0.07505 1.302091,-0.511186 0.469757,-0.455303 0.625472,-0.511189 1.424338,-0.511189 1.07304,0 1.111258,0.118361 0.385726,1.19462 -0.894072,1.326293 -2.764971,1.9166 -4.41079,1.391694 z m 12.634866,0.06022 c -1.29631,-0.371929 -2.053112,-1.470481 -2.047049,-2.971435 0.0044,-1.170692 0.438398,-2.063285 1.26973,-2.613432 0.562689,-0.372376 0.832725,-0.442599 1.703187,-0.442944 1.338809,-4.67e-4 2.091455,0.363354 2.621178,1.267265 0.230156,0.392731 0.409259,0.961132 0.427186,1.355805 l 0.03088,0.679577 -2.171884,0.04383 c -2.16249,0.04363 -2.171436,0.04533 -2.065474,0.393222 0.189969,0.623702 0.556214,0.899908 1.193274,0.899908 0.4331,0 0.658907,-0.08879 0.799899,-0.314578 0.162466,-0.260147 0.366807,-0.314574 1.180996,-0.314574 0.541503,0 0.984544,0.03891 0.984544,0.08645 0,0.261818 -0.524203,1.030631 -0.942972,1.383003 -0.798582,0.671964 -1.867157,0.868203 -2.983494,0.547907 z m 2.196295,-3.676042 c 0,-0.37403 -0.727148,-1.01523 -1.151302,-1.01523 -0.463267,0 -1.139509,0.507446 -1.252612,0.939937 -0.07841,0.299812 -0.0108,0.318373 1.160325,0.318373 1.01681,0 1.243589,-0.04431 1.243589,-0.24308 z M 56.258857,17.37409 v -2.988481 h 0.943729 c 0.910431,0 0.943733,0.01438 0.943733,0.407203 v 0.407203 l 0.476497,-0.400946 c 0.262071,-0.220515 0.725194,-0.4476 1.029157,-0.504623 0.702444,-0.131782 1.838743,0.283992 2.173832,0.795406 l 0.244652,0.373391 0.526413,-0.526413 c 1.249604,-1.249601 3.412762,-0.690514 3.883364,1.003693 0.08684,0.312665 0.158306,1.435533 0.158786,2.495266 l 8.46e-4,1.926781 h -0.94373 -0.943731 v -1.954689 c 0,-1.924342 -0.0064,-1.959752 -0.414435,-2.280683 -0.549763,-0.432444 -1.087008,-0.411738 -1.558823,0.06008 -0.367171,0.367167 -0.38607,0.478836 -0.38607,2.28068 v 1.894605 H 61.449376 60.505644 V 18.46795 c 0,-1.801844 -0.0189,-1.913515 -0.386072,-2.280681 -0.471816,-0.471813 -1.009056,-0.49252 -1.558818,-0.06008 -0.408,0.320932 -0.414435,0.356341 -0.414435,2.280684 v 1.954688 h -0.943676 -0.943732 z m 26.896323,0 v -2.988481 h 0.94374 0.94373 v 0.479276 0.479278 l 0.58983,-0.464313 c 0.324401,-0.255375 0.823412,-0.51284 1.10889,-0.572149 l 0.519061,-0.107829 -0.04725,0.997282 -0.04725,0.997278 -0.768822,0.08829 c -1.182962,0.135837 -1.354568,0.445698 -1.354568,2.445759 v 1.634104 h -0.943726 -0.943741 z m 11.900721,0.172221 c -0.403281,-1.548942 -0.733238,-2.893758 -0.733238,-2.988482 0,-0.103815 0.342393,-0.17222 0.862098,-0.17222 0.765907,0 0.870833,0.03948 0.940568,0.353899 0.04314,0.194645 0.22341,1.128539 0.400567,2.075322 0.177157,0.946784 0.345439,1.744761 0.373962,1.773283 0.02855,0.02851 0.291981,-0.887681 0.585471,-2.036003 l 0.533621,-2.087859 h 1.020779 1.020791 l 0.56668,2.123394 c 0.61696,2.311836 0.60999,2.31129 1.00411,0.07864 0.4467,-2.530537 0.30883,-2.280683 1.25851,-2.280683 h 0.83503 l -0.53916,2.162715 c -0.29653,1.189494 -0.64543,2.537477 -0.77532,2.99552 l -0.23616,0.832805 -1.03906,-0.04634 -1.03905,-0.04636 -0.504766,-1.851726 c -0.277607,-1.018448 -0.540029,-1.887001 -0.583145,-1.930118 -0.04321,-0.04312 -0.316535,0.807858 -0.6076,1.891048 l -0.529201,1.969441 H 96.830264 95.78914 Z"
       style="fill:#040303;fill-opacity:1;stroke-width:0.15728848" />
  </g>
</svg>
