<?xml version="1.0" encoding="UTF-8" standalone="no"?>
<svg
   xmlns:dc="http://purl.org/dc/elements/1.1/"
   xmlns:cc="http://creativecommons.org/ns#"
   xmlns:rdf="http://www.w3.org/1999/02/22-rdf-syntax-ns#"
   xmlns:svg="http://www.w3.org/2000/svg"
   xmlns="http://www.w3.org/2000/svg"
   xmlns:sodipodi="http://sodipodi.sourceforge.net/DTD/sodipodi-0.dtd"
   xmlns:inkscape="http://www.inkscape.org/namespaces/inkscape"
   width="135"
   height="36"
   viewBox="0 0 135 36"
   version="1.1"
   id="svg236"
   sodipodi:docname="mycrew.svg"
   inkscape:version="0.92.5 (2060ec1f9f, 2020-04-08)"
   style="fill:none">
  <metadata
     id="metadata242">
    <rdf:RDF>
      <cc:Work
         rdf:about="">
        <dc:format>image/svg+xml</dc:format>
        <dc:type
           rdf:resource="http://purl.org/dc/dcmitype/StillImage" />
        <dc:title></dc:title>
      </cc:Work>
    </rdf:RDF>
  </metadata>
  <defs
     id="defs240" />
  <sodipodi:namedview
     pagecolor="#ffffff"
     bordercolor="#666666"
     borderopacity="1"
     objecttolerance="10"
     gridtolerance="10"
     guidetolerance="10"
     inkscape:pageopacity="0"
     inkscape:pageshadow="2"
     inkscape:window-width="2560"
     inkscape:window-height="1320"
     id="namedview238"
     showgrid="false"
     inkscape:zoom="8"
     inkscape:cx="16.811581"
     inkscape:cy="51.92114"
     inkscape:window-x="0"
     inkscape:window-y="33"
     inkscape:window-maximized="1"
     inkscape:current-layer="svg236" />
  <path
     style="fill:#040303;fill-opacity:1;stroke-width:0.30831608"
     d="M 14.508511,35.640561 C 9.916565,34.470267 5.622781,31.131336 3.489704,27.072098 2.433223,25.061602 1.509066,21.75951 1.497695,19.954528 l -0.0055,-0.850498 16.874295,0.0797 16.874294,0.0797 -0.08637,1.387423 c -0.391075,6.277973 -4.888528,12.140695 -11.038055,14.38893 -2.608979,0.953834 -7.116541,1.235681 -9.60782,0.600755 z M 7.040042,15.429746 C 4.789834,14.745261 2.770973,12.937141 1.878711,10.807186 1.178852,9.1364629 1.28145,6.1737344 2.097549,4.4879015 2.939472,2.7486938 4.80918,1.1071013 6.67043,0.47291033 8.425794,-0.12520661 9.59411,-0.1313584 11.533739,0.44721243 18.584321,2.550704 18.704474,12.86208 11.706282,15.246636 10.243979,15.744892 8.324022,15.820193 7.040118,15.429659 Z M 11.026478,9.9865668 C 12.345936,8.876321 12.365943,7.120068 11.073928,5.8279894 9.936261,4.6903328 8.658059,4.6445365 7.407721,5.6966467 6.226945,6.6901965 5.967202,7.7549255 6.586978,9.06099 c 0.866339,1.825655 2.872759,2.24396 4.439561,0.9255843 z M 21.83739,13.709899 20.158911,12.010295 22.23088,9.938314 24.302867,7.8663307 22.229991,5.7774406 20.157115,3.6885561 l 1.764517,-1.7645303 1.764533,-1.76453085 2.088886,2.07288585 2.088884,2.0728759 2.075617,-2.0755911 2.075593,-2.07560293 1.767235,1.76724793 1.76725,1.7672455 -2.072877,2.0888845 -2.072893,2.0888901 2.075616,2.0755992 2.075594,2.0756011 -1.767252,1.767243 -1.767233,1.767245 -2.091945,-2.075899 -2.091923,-2.0759 -1.986824,2.004637 c -1.092746,1.102557 -2.064931,2.004646 -2.160422,2.004646 -0.09543,0 -0.928917,-0.764822 -1.852081,-1.699604 z"
     id="path265"
     inkscape:connector-curvature="0"
     sodipodi:nodetypes="ccccccccccccccccccccccccsccccccccccccccccccccccss" />
  <path
     style="fill:#040303;fill-opacity:1;stroke-width:0.28694889"
     d="m 69.836797,26.11222 c 0.408238,-0.907478 0.988423,-2.211171 1.289287,-2.897095 l 0.547038,-1.247132 -1.332832,-3.057101 c -0.733052,-1.681405 -1.764404,-4.063677 -2.2919,-5.293939 l -0.959068,-2.236842 1.894955,0.08472 1.894952,0.08472 1.184409,3.063762 c 0.65144,1.685068 1.263044,3.141034 1.359109,3.235476 0.09609,0.09445 0.66353,-1.219689 1.261026,-2.920284 0.59748,-1.700602 1.177629,-3.195504 1.289209,-3.32201 0.111611,-0.126509 0.978036,-0.19107 1.92548,-0.143484 l 1.722619,0.08654 -1.342805,3.156439 c -0.738542,1.736039 -2.285586,5.383879 -3.437895,8.106304 l -2.095086,4.949887 H 70.919911 69.094546 Z M 85.07245,22.150349 C 79.340839,20.322354 79.045809,11.03424 84.645077,8.6952943 86.335809,7.9890349 89.07599,8.114105 90.806643,8.9765274 c 1.511339,0.75313 2.766643,2.2238016 3.114722,3.6490926 l 0.192704,0.789109 H 92.41523 c -1.549752,0 -1.75394,-0.07452 -2.326797,-0.849356 -0.886223,-1.198683 -2.483965,-1.637525 -3.863449,-1.06114 -1.607632,0.671711 -2.269543,1.949544 -2.146025,4.142985 0.08897,1.579692 0.215477,1.916071 1.025402,2.726011 0.79052,0.790513 1.128081,0.923952 2.337245,0.923952 1.20581,0 1.554551,-0.136913 2.375466,-0.932582 0.857001,-0.83063 1.14108,-0.932586 2.598489,-0.932586 1.957598,0 2.02732,0.215932 0.703698,2.179403 -1.631098,2.41962 -5.044268,3.496545 -8.046816,2.538933 z m 23.05039,0.109855 c -2.36492,-0.678528 -3.74559,-2.682668 -3.73453,-5.42093 0.008,-2.13575 0.79979,-3.76415 2.31643,-4.767809 1.02654,-0.679343 1.51918,-0.807455 3.10721,-0.808084 2.44245,-8.52e-4 3.81553,0.662884 4.78194,2.311931 0.41988,0.716479 0.74662,1.75344 0.77933,2.473461 l 0.0564,1.239785 -3.96228,0.07995 c -3.94513,0.07959 -3.96145,0.08269 -3.76814,0.717374 0.34657,1.137849 1.01473,1.641745 2.17695,1.641745 0.79012,0 1.20207,-0.161988 1.45929,-0.573899 0.2964,-0.474599 0.66918,-0.573893 2.15455,-0.573893 0.98789,0 1.79615,0.07098 1.79615,0.157721 0,0.477648 -0.95633,1.880229 -1.72031,2.523079 -1.45689,1.225896 -3.40634,1.583903 -5.44293,0.999572 z m 4.0068,-6.70638 c 0,-0.68236 -1.32657,-1.852131 -2.10037,-1.852131 -0.84516,0 -2.07886,0.925759 -2.2852,1.714771 -0.14305,0.546962 -0.0197,0.580823 2.11684,0.580823 1.85501,0 2.26873,-0.08085 2.26873,-0.443463 z M 46.992245,16.85812 v -5.45203 h 1.72169 c 1.660943,0 1.721697,0.02623 1.721697,0.74288 v 0.742881 l 0.869297,-0.731467 c 0.478109,-0.402296 1.323006,-0.816577 1.877541,-0.920607 1.281501,-0.240416 3.354506,0.518101 3.965825,1.451097 l 0.446329,0.681195 0.960361,-0.960359 c 2.279713,-2.279707 6.226065,-1.259738 7.084606,1.831084 0.158419,0.57041 0.288806,2.618912 0.289682,4.552232 l 0.0016,3.515119 h -1.721692 -1.721693 v -3.566031 c 0,-3.510671 -0.01171,-3.57527 -0.756074,-4.16076 -1.00296,-0.788928 -1.983081,-0.751153 -2.843836,0.10961 -0.669847,0.66984 -0.704325,0.873564 -0.704325,4.160754 v 3.456419 h -1.721696 -1.721694 v -3.456426 c 0,-3.28719 -0.03448,-3.490915 -0.70433,-4.160755 -0.860757,-0.860751 -1.84087,-0.898527 -2.843827,-0.10961 -0.744335,0.585491 -0.756074,0.65009 -0.756074,4.160761 v 3.56603 h -1.721593 -1.721695 z m 49.068248,0 v -5.45203 h 1.721711 1.721691 v 0.874366 0.874371 l 1.076055,-0.847068 c 0.59182,-0.465894 1.50219,-0.935599 2.023,-1.0438 l 0.94695,-0.196717 -0.0862,1.819388 -0.0862,1.819383 -1.4026,0.161063 c -2.158135,0.247814 -2.471203,0.813108 -2.471203,4.461913 v 2.981174 h -1.721685 -1.721711 z m 21.711057,0.314191 c -0.73573,-2.82581 -1.33768,-5.279221 -1.33768,-5.452031 0,-0.189395 0.62464,-0.31419 1.57276,-0.31419 1.39728,0 1.58871,0.07202 1.71592,0.645636 0.0787,0.355099 0.40758,2.058847 0.73078,3.786109 0.3232,1.727263 0.6302,3.183051 0.68223,3.235084 0.0521,0.05202 0.53268,-1.619438 1.06811,-3.714377 l 0.97351,-3.808981 h 1.86226 1.86228 l 1.03381,3.87381 c 1.12555,4.217591 1.11284,4.216596 1.83184,0.143465 0.81495,-4.616579 0.56341,-4.160758 2.29597,-4.160758 h 1.52339 l -0.98362,3.945544 c -0.54098,2.17005 -1.17749,4.629241 -1.41445,5.46487 l -0.43084,1.519327 -1.8956,-0.08455 -1.8956,-0.08457 -0.92086,-3.378191 c -0.50646,-1.858004 -0.98521,-3.442546 -1.06387,-3.521207 -0.0788,-0.07866 -0.57747,1.473815 -1.10847,3.449929 l -0.96545,3.592945 h -1.89937 -1.89937 z"
     id="path265-6"
     inkscape:connector-curvature="0"
     sodipodi:nodetypes="ccccccccccccccsccccccccccsccccscsccccccccccccscssccccscscccsscccccccccccsccscccscssccccccccccccccccscccccsscccccccccscsccccccccccc" />
</svg>
