<?xml version="1.0" encoding="UTF-8" standalone="no"?>
<svg
   xmlns:dc="http://purl.org/dc/elements/1.1/"
   xmlns:cc="http://creativecommons.org/ns#"
   xmlns:rdf="http://www.w3.org/1999/02/22-rdf-syntax-ns#"
   xmlns:svg="http://www.w3.org/2000/svg"
   xmlns="http://www.w3.org/2000/svg"
   xmlns:sodipodi="http://sodipodi.sourceforge.net/DTD/sodipodi-0.dtd"
   xmlns:inkscape="http://www.inkscape.org/namespaces/inkscape"
   width="135"
   height="42"
   viewBox="0 0 135 42"
   version="1.1"
   id="svg1370"
   sodipodi:docname="rad12.svg"
   inkscape:version="0.92.5 (2060ec1f9f, 2020-04-08)"
   style="fill:none">
  <metadata
     id="metadata1376">
    <rdf:RDF>
      <cc:Work
         rdf:about="">
        <dc:format>image/svg+xml</dc:format>
        <dc:type
           rdf:resource="http://purl.org/dc/dcmitype/StillImage" />
        <dc:title />
      </cc:Work>
    </rdf:RDF>
  </metadata>
  <defs
     id="defs1374" />
  <sodipodi:namedview
     pagecolor="#ffffff"
     bordercolor="#666666"
     borderopacity="1"
     objecttolerance="10"
     gridtolerance="10"
     guidetolerance="10"
     inkscape:pageopacity="0"
     inkscape:pageshadow="2"
     inkscape:window-width="2560"
     inkscape:window-height="1320"
     id="namedview1372"
     showgrid="false"
     inkscape:zoom="6.6635825"
     inkscape:cx="55.359573"
     inkscape:cy="-1.71603"
     inkscape:window-x="0"
     inkscape:window-y="33"
     inkscape:window-maximized="1"
     inkscape:current-layer="svg1370" />
  <path
     style="fill:#225560;fill-opacity:1;stroke-width:0.38337716"
     d="m 19.037146,40.94248 c -2.136342,-0.929157 -3.009533,-3.70596 -1.862737,-5.923622 0.536441,-1.037361 2.613771,-2.332921 3.740658,-2.332921 0.297481,0 0.925944,-0.520833 1.396582,-1.15741 1.377822,-1.863603 4.622158,-3.774181 7.648788,-4.504347 2.447632,-0.590484 2.752525,-0.764124 2.754929,-1.568975 0.0028,-0.904191 -0.0012,-0.904881 -4.143329,-0.763101 l -4.146036,0.141917 -4.959173,2.391425 c -4.923029,2.373999 -7.251397,3.132859 -9.6675722,3.150858 -0.7713708,0.0057 -1.3454792,0.237314 -1.4841262,0.59862 -0.333888,0.870102 -2.198814,1.711016 -3.794579,1.711016 -2.085579,0 -4.00616206,-2.021732 -4.00616206,-4.21715 0,-1.320019 0.23489502,-1.845078 1.30348406,-2.913666 1.073918,-1.073919 1.590762,-1.303482 2.934689,-1.303482 1.412139,0 1.832894,0.212017 3.132978,1.578691 1.4547786,1.529287 1.5654998,1.573409 3.5380054,1.409834 1.5107,-0.125282 3.259843,-0.780647 6.77732,-2.539322 5.203582,-2.6017 8.673761,-3.42955 12.493918,-2.980565 1.825761,0.214584 2.02329,0.165526 2.02329,-0.502572 0,-1.286872 -2.290658,-1.72961 -9.58443,-1.85248 -9.089135,-0.153111 -9.117535,-0.152814 -11.408584,0.120158 -1.9103702,0.227599 -2.0758564,0.175925 -3.1628634,-0.987718 -0.94313,-1.009629 -1.147018,-1.554208 -1.147018,-3.063686 0,-1.496694 0.205452,-2.055738 1.112259,-3.026472 0.9518488,-1.018958 1.3803492,-1.189447 2.9711744,-1.182152 2.631178,0.01221 4.350866,1.589804 4.350866,3.991732 0,0.541006 0.04313,1.008227 0.09585,1.038274 0.05271,0.03005 3.546241,0.174426 7.763389,0.320837 4.217148,0.146394 7.969451,0.399063 8.338453,0.561451 0.555298,0.244373 0.670911,0.09749 0.670911,-0.852369 0,-1.056516 -0.129539,-1.167048 -1.631983,-1.392349 C 28.518075,14.507825 25.737993,13.017898 23.60216,10.88207 22.069659,9.3495631 21.370809,8.9165601 20.429929,8.9165601 c -0.869707,0 -1.584369,-0.377643 -2.558902,-1.352176 -1.246149,-1.246149 -1.336617,-1.490175 -1.153799,-3.112141 0.264668,-2.348138 1.520853,-3.60432277 3.868991,-3.86899277 1.621965,-0.1828265 1.865994,-0.092348 3.112141,1.15380117 1.137565,1.1375636 1.352175,1.6199026 1.352175,3.0390346 0,0.927772 -0.206686,1.893544 -0.459303,2.146165 -0.638229,0.638225 1.561045,2.860694 4.066147,4.1090439 3.083518,1.536579 5.814604,1.346655 11.186351,-0.777929 5.426304,-2.1461629 9.06051,-2.7768979 12.610549,-2.1886359 5.248757,0.869748 9.731681,3.9120799 11.720815,7.9543059 1.327289,2.697261 1.327289,6.867172 0,9.564432 -2.011346,4.087368 -6.569964,7.147647 -11.868978,7.967859 -3.362663,0.520492 -6.50545,0.03255 -10.613522,-1.647836 -5.20479,-2.12898 -5.649434,-2.250477 -8.29949,-2.267737 -3.243302,-0.02113 -6.055401,0.999499 -8.008428,2.906578 -1.335092,1.303686 -1.402973,1.471884 -0.889753,2.204612 0.732768,1.046173 0.709078,3.683322 -0.04272,4.75668 -0.688694,0.983242 -2.495697,2.006922 -3.503929,1.984991 -0.379469,-0.0083 -1.239473,-0.254009 -1.911114,-0.546128 z m 2.973038,-3.113086 c 0.365313,-0.440175 0.393284,-0.782914 0.101692,-1.245977 -0.571745,-0.907964 -1.717936,-1.030014 -2.292591,-0.244127 -1.064118,1.45527 1.034957,2.882926 2.190899,1.490104 z M 5.6625966,29.399847 c 0.331349,-0.331347 0.602449,-0.750323 0.602449,-0.931059 0,-0.180735 -0.2711,-0.599713 -0.602449,-0.931058 -0.331346,-0.331349 -0.750322,-0.60245 -0.93106,-0.60245 -0.180736,0 -0.599712,0.271101 -0.931057,0.60245 -0.331348,0.331345 -0.602452,0.750323 -0.602452,0.931058 0,0.180736 0.271104,0.599712 0.602452,0.931059 0.331345,0.331347 0.750323,0.60245 0.931057,0.60245 0.180736,0 0.599714,-0.271103 0.93106,-0.60245 z M 47.51643,23.71491 c 1.4503,-1.450296 1.692374,-2.966484 0.761119,-4.767302 -1.19279,-2.306623 -4.484201,-2.817307 -6.389983,-0.991455 -2.787736,2.67082 -1.022496,7.062239 2.838841,7.062239 1.1794,0 1.755861,-0.26931 2.790023,-1.303482 z m -3.987128,-1.456833 c -0.253019,-0.253028 -0.460045,-0.822343 -0.460045,-1.265146 0,-1.720315 2.288468,-2.41317 3.08078,-0.932733 0.851468,1.590986 -1.367047,3.451553 -2.620735,2.197879 z M 12.33678,16.630716 c 0.28202,-0.178756 0.454538,-0.736811 0.383376,-1.24011 -0.178034,-1.259173 -2.053618,-1.524798 -2.428415,-0.34391 -0.4351082,1.370911 0.832385,2.352666 2.045039,1.58402 z M 21.968242,5.6762441 c 0.69979,-0.843192 0.126411,-2.126974 -0.949959,-2.126974 -1.122885,0 -1.79884,1.050258 -1.289037,2.002832 0.440636,0.823337 1.605132,0.887902 2.238996,0.124135 z"
     id="path959"
     inkscape:connector-curvature="0"
     sodipodi:nodetypes="csscscscsccssssssssssccsccscsssscssssssscssssssscccccscsscscscscscscssssssscccccscc" />
  <text
     xml:space="preserve"
     style="font-style:normal;font-variant:normal;font-weight:normal;font-stretch:normal;font-size:19.25103188px;line-height:1.25;font-family:Ubuntu;-inkscape-font-specification:Ubuntu;letter-spacing:0px;word-spacing:0px;fill:#225560;fill-opacity:1;stroke:none;stroke-width:1.44382751"
     x="76.652977"
     y="28.344269"
     id="text900"><tspan
       sodipodi:role="line"
       id="tspan898"
       x="76.652977"
       y="28.344269"
       style="font-style:normal;font-variant:normal;font-weight:800;font-stretch:normal;font-family:'Inter UI';-inkscape-font-specification:'Inter UI Ultra-Bold';fill:#225560;fill-opacity:1;stroke-width:1.44382751">Rad12</tspan></text>
</svg>
